<svg xmlns="http://www.w3.org/2000/svg" xmlns:xlink="http://www.w3.org/1999/xlink" width="40" zoomAndPan="magnify" viewBox="0 0 30 30.000001" height="40" preserveAspectRatio="xMidYMid meet" version="1.0"><defs><clipPath id="2e6f282b03"><path d="M 0.484375 7.652344 L 29.515625 7.652344 L 29.515625 21.445312 L 0.484375 21.445312 Z M 0.484375 7.652344 " clip-rule="nonzero"/></clipPath></defs><g clip-path="url(#2e6f282b03)"><path fill="#ffffff" d="M 23.378906 20.980469 L 29.113281 15.246094 C 29.511719 14.847656 29.511719 14.195312 29.113281 13.796875 L 23.378906 8.050781 C 22.984375 7.652344 22.328125 7.652344 21.933594 8.050781 C 21.535156 8.449219 21.535156 9.101562 21.933594 9.5 L 25.921875 13.488281 L 1.515625 13.488281 C 0.949219 13.488281 0.488281 13.949219 0.488281 14.515625 C 0.488281 15.078125 0.949219 15.542969 1.515625 15.542969 L 25.90625 15.542969 L 21.917969 19.53125 C 21.714844 19.734375 21.625 19.992188 21.625 20.261719 C 21.625 20.53125 21.726562 20.785156 21.917969 20.992188 C 22.328125 21.375 22.984375 21.375 23.378906 20.980469 Z M 23.378906 20.980469 " fill-opacity="1" fill-rule="nonzero"/></g></svg>