<svg xmlns="http://www.w3.org/2000/svg" xmlns:xlink="http://www.w3.org/1999/xlink" width="60" zoomAndPan="magnify" viewBox="0 0 45 30.000001" height="40" preserveAspectRatio="xMidYMid meet" version="1.0"><defs><g/><clipPath id="4860246101"><path d="M 3.628906 11.746094 L 10.785156 11.746094 L 10.785156 18.902344 L 3.628906 18.902344 Z M 3.628906 11.746094 " clip-rule="nonzero"/></clipPath><clipPath id="28658c73a9"><path d="M 7.207031 11.746094 C 5.230469 11.746094 3.628906 13.347656 3.628906 15.324219 C 3.628906 17.300781 5.230469 18.902344 7.207031 18.902344 C 9.183594 18.902344 10.785156 17.300781 10.785156 15.324219 C 10.785156 13.347656 9.183594 11.746094 7.207031 11.746094 Z M 7.207031 11.746094 " clip-rule="nonzero"/></clipPath></defs><g clip-path="url(#4860246101)"><g clip-path="url(#28658c73a9)"><path fill="#e44b00" d="M 3.628906 11.746094 L 10.785156 11.746094 L 10.785156 18.902344 L 3.628906 18.902344 Z M 3.628906 11.746094 " fill-opacity="1" fill-rule="nonzero"/></g></g><g fill="#ffffff" fill-opacity="1"><g transform="translate(13.494651, 17.939746)"><g><path d="M 2.859375 0 L 1.671875 0 L 1.671875 -4.609375 L 0.15625 -4.609375 L 0.15625 -5.59375 L 4.390625 -5.59375 L 4.390625 -4.609375 L 2.859375 -4.609375 Z M 2.859375 0 "/></g></g><g transform="translate(18.033285, 17.939746)"><g><path d="M 1.890625 -3.109375 L 2.28125 -3.109375 C 2.65625 -3.109375 2.929688 -3.171875 3.109375 -3.296875 C 3.285156 -3.421875 3.375 -3.617188 3.375 -3.890625 C 3.375 -4.160156 3.28125 -4.347656 3.09375 -4.453125 C 2.914062 -4.566406 2.632812 -4.625 2.25 -4.625 L 1.890625 -4.625 Z M 1.890625 -2.15625 L 1.890625 0 L 0.703125 0 L 0.703125 -5.59375 L 2.34375 -5.59375 C 3.101562 -5.59375 3.664062 -5.453125 4.03125 -5.171875 C 4.394531 -4.898438 4.578125 -4.484375 4.578125 -3.921875 C 4.578125 -3.585938 4.484375 -3.289062 4.296875 -3.03125 C 4.117188 -2.78125 3.863281 -2.582031 3.53125 -2.4375 C 4.375 -1.175781 4.921875 -0.363281 5.171875 0 L 3.859375 0 L 2.53125 -2.15625 Z M 1.890625 -2.15625 "/></g></g><g transform="translate(23.207175, 17.939746)"><g><path d="M 4.125 0 L 3.71875 -1.328125 L 1.6875 -1.328125 L 1.28125 0 L 0 0 L 1.96875 -5.625 L 3.421875 -5.625 L 5.40625 0 Z M 3.4375 -2.328125 C 3.0625 -3.535156 2.847656 -4.21875 2.796875 -4.375 C 2.753906 -4.53125 2.722656 -4.65625 2.703125 -4.75 C 2.617188 -4.425781 2.378906 -3.617188 1.984375 -2.328125 Z M 3.4375 -2.328125 "/></g></g><g transform="translate(28.614502, 17.939746)"><g><path d="M 3.90625 -5.59375 L 5.09375 -5.59375 L 3.1875 0 L 1.90625 0 L 0 -5.59375 L 1.203125 -5.59375 L 2.25 -2.265625 C 2.3125 -2.066406 2.375 -1.835938 2.4375 -1.578125 C 2.5 -1.316406 2.535156 -1.132812 2.546875 -1.03125 C 2.578125 -1.269531 2.675781 -1.679688 2.84375 -2.265625 Z M 3.90625 -5.59375 "/></g></g><g transform="translate(33.708028, 17.939746)"><g><path d="M 3.921875 0 L 0.703125 0 L 0.703125 -5.59375 L 3.921875 -5.59375 L 3.921875 -4.625 L 1.890625 -4.625 L 1.890625 -3.390625 L 3.78125 -3.390625 L 3.78125 -2.421875 L 1.890625 -2.421875 L 1.890625 -0.984375 L 3.921875 -0.984375 Z M 3.921875 0 "/></g></g><g transform="translate(38.097415, 17.939746)"><g><path d="M 0.703125 0 L 0.703125 -5.59375 L 1.890625 -5.59375 L 1.890625 -0.984375 L 4.15625 -0.984375 L 4.15625 0 Z M 0.703125 0 "/></g></g></g></svg>