<svg xmlns="http://www.w3.org/2000/svg" xmlns:xlink="http://www.w3.org/1999/xlink" width="40" zoomAndPan="magnify" viewBox="0 0 30 30.000001" height="40" preserveAspectRatio="xMidYMid meet" version="1.0"><defs><clipPath id="e4d801fe49"><path d="M 10.1875 9 L 19 9 L 19 17 L 10.1875 17 Z M 10.1875 9 " clip-rule="nonzero"/></clipPath><clipPath id="26240fa0aa"><path d="M 15 15 L 19.621094 15 L 19.621094 20.324219 L 15 20.324219 Z M 15 15 " clip-rule="nonzero"/></clipPath></defs><g clip-path="url(#e4d801fe49)"><path fill="#e6e7e8" d="M 12.269531 9.941406 C 13.957031 8.707031 16.308594 9.105469 17.519531 10.828125 C 18.726562 12.550781 18.335938 14.945312 16.648438 16.175781 C 14.957031 17.410156 12.605469 17.011719 11.398438 15.289062 C 10.1875 13.566406 10.578125 11.171875 12.269531 9.941406 Z M 12.648438 10.480469 C 14.046875 9.464844 15.988281 9.792969 16.984375 11.214844 C 17.984375 12.636719 17.664062 14.617188 16.265625 15.632812 C 14.871094 16.652344 12.929688 16.324219 11.929688 14.902344 C 10.929688 13.480469 11.253906 11.5 12.648438 10.480469 Z M 12.648438 10.480469 " fill-opacity="1" fill-rule="evenodd"/></g><g clip-path="url(#26240fa0aa)"><path fill="#e6e7e8" d="M 15.550781 16.191406 L 16.886719 15.289062 C 16.945312 15.25 16.996094 15.265625 17.035156 15.328125 L 19.554688 19.207031 C 19.59375 19.273438 19.585938 19.324219 19.53125 19.363281 L 18.191406 20.265625 C 18.132812 20.304688 18.085938 20.289062 18.042969 20.226562 L 15.527344 16.347656 C 15.484375 16.28125 15.492188 16.230469 15.550781 16.191406 Z M 15.550781 16.191406 " fill-opacity="1" fill-rule="evenodd"/></g><path fill="#e6e7e8" d="M 11.808594 12.160156 C 12.40625 11.277344 13.558594 10.339844 14.613281 10.230469 C 13.132812 9.925781 11.921875 11.269531 11.808594 12.160156 Z M 11.808594 12.160156 " fill-opacity="1" fill-rule="evenodd"/></svg>