<svg xmlns="http://www.w3.org/2000/svg" xmlns:xlink="http://www.w3.org/1999/xlink" width="40" zoomAndPan="magnify" viewBox="0 0 30 30.000001" height="40" preserveAspectRatio="xMidYMid meet" version="1.0"><defs><clipPath id="f66d303d3d"><path d="M 3.386719 4 L 7 4 L 7 6 L 3.386719 6 Z M 3.386719 4 " clip-rule="nonzero"/></clipPath><clipPath id="5034cf0a43"><path d="M 3.386719 3 L 29.515625 3 L 29.515625 27.582031 L 3.386719 27.582031 Z M 3.386719 3 " clip-rule="nonzero"/></clipPath><clipPath id="ab84ef6a05"><path d="M 3.386719 2 L 29.515625 2 L 29.515625 27.582031 L 3.386719 27.582031 Z M 3.386719 2 " clip-rule="nonzero"/></clipPath><clipPath id="fd5370811a"><path d="M 5 1.453125 L 10 1.453125 L 10 4 L 5 4 Z M 5 1.453125 " clip-rule="nonzero"/></clipPath><clipPath id="a80aeb9a6b"><path d="M 4 1.453125 L 10 1.453125 L 10 5 L 4 5 Z M 4 1.453125 " clip-rule="nonzero"/></clipPath><clipPath id="fece5310f5"><path d="M 3.386719 3 L 6 3 L 6 6 L 3.386719 6 Z M 3.386719 3 " clip-rule="nonzero"/></clipPath></defs><g clip-path="url(#f66d303d3d)"><path stroke-linecap="butt" transform="matrix(0.0321567, 0, 0, 0.0321567, 1.107184, -3.025756)" fill="none" stroke-linejoin="miter" d="M 140.250671 249.096496 C 140.250671 249.096496 99.313487 232.818803 84.857924 240.836174 C 81.092189 242.901254 108.545612 253.226657 123.365601 253.712558 C 138.064115 254.198459 140.250671 249.096496 140.250671 249.096496 Z M 140.250671 249.096496 " stroke="#000000" stroke-width="3.259" stroke-opacity="1" stroke-miterlimit="4"/></g><g clip-path="url(#5034cf0a43)"><path fill="#ffffff" d="M 6.949219 3.054688 C 6 3.046875 5.113281 3.570312 5.097656 3.9375 C 5.078125 4.523438 5.78125 5.113281 5.78125 5.113281 C 5.78125 5.113281 5.789062 5.113281 5.792969 5.113281 C 5.894531 5.304688 6.515625 6.507812 6.378906 7.316406 C 6.230469 8.195312 6.351562 8.761719 5.398438 10.234375 C 4.417969 11.742188 4.285156 13.125 4.746094 14.417969 C 4.695312 14.605469 4.605469 14.921875 4.6875 14.808594 C 4.730469 14.753906 4.789062 14.714844 4.851562 14.691406 C 4.921875 14.855469 5 15.015625 5.085938 15.171875 C 4.9375 15.539062 4.769531 15.972656 4.773438 16.007812 C 4.777344 16.074219 4.929688 15.914062 5.199219 15.554688 C 5.21875 15.527344 5.238281 15.503906 5.261719 15.476562 C 5.335938 15.597656 5.414062 15.714844 5.496094 15.832031 C 5.226562 15.984375 4.886719 16.09375 4.886719 16.09375 L 5.589844 15.960938 C 5.625 16.007812 5.660156 16.054688 5.695312 16.101562 C 5.609375 16.167969 5.496094 16.253906 5.339844 16.367188 C 4.828125 16.738281 3.78125 17.28125 3.796875 17.316406 C 3.8125 17.355469 5.824219 16.699219 5.824219 16.699219 C 5.824219 16.699219 4.636719 17.441406 5.082031 17.386719 C 5.527344 17.332031 6.296875 16.972656 6.296875 16.972656 C 6.296875 16.972656 5.214844 17.621094 5.175781 17.652344 C 5.132812 17.6875 5.90625 17.4375 6.488281 17.273438 C 6.554688 17.253906 6.625 17.214844 6.699219 17.164062 C 6.867188 17.292969 7.042969 17.398438 7.230469 17.492188 C 7.289062 17.742188 7.515625 18.21875 8.253906 19.042969 C 9.496094 20.433594 10.71875 21.28125 10.796875 21.40625 C 10.875 21.53125 11.316406 22.566406 11.417969 23.394531 C 11.519531 24.222656 11.527344 26.066406 11.15625 26.109375 C 10.785156 26.15625 10.105469 26.195312 9.835938 26.246094 C 9.566406 26.296875 9.613281 26.429688 9.613281 26.429688 C 9.613281 26.429688 8.214844 26.457031 7.996094 26.605469 C 7.773438 26.753906 7.738281 26.957031 7.738281 26.957031 C 7.738281 26.957031 7.855469 26.816406 8.121094 26.84375 C 8.382812 26.871094 9.554688 26.910156 9.972656 26.90625 C 10.136719 26.902344 10.277344 26.894531 10.394531 26.886719 C 10.511719 26.839844 10.683594 26.859375 10.683594 26.859375 C 10.683594 26.859375 10.574219 26.875 10.394531 26.886719 C 10.335938 26.910156 10.289062 26.953125 10.28125 27.019531 C 10.257812 27.222656 10.339844 27.550781 10.339844 27.550781 C 10.339844 27.550781 10.605469 27.21875 10.746094 27.210938 C 10.890625 27.207031 10.902344 27.222656 11.066406 27.109375 C 11.226562 26.996094 11.179688 27.011719 11.519531 26.949219 C 11.863281 26.886719 12.199219 26.796875 12.277344 26.617188 C 12.355469 26.433594 12.425781 26.277344 12.425781 26.277344 C 12.425781 26.277344 12.511719 26.480469 12.75 26.558594 C 12.992188 26.640625 13.152344 26.472656 13.296875 26.582031 C 13.441406 26.691406 13.554688 26.679688 13.554688 26.679688 C 13.554688 26.679688 13.25 26.503906 13.242188 26.378906 C 13.238281 26.253906 13.410156 26.246094 13.152344 26.121094 C 12.894531 25.996094 12.511719 26.070312 12.449219 25.769531 C 12.390625 25.46875 12.386719 24.847656 12.386719 24.847656 C 12.386719 24.847656 12.625 24.800781 12.714844 24.863281 C 12.65625 24.796875 12.515625 24.613281 12.488281 24.441406 C 12.445312 24.199219 12.476562 23.449219 12.535156 23.066406 C 12.59375 22.679688 12.769531 22.34375 12.566406 21.863281 C 12.476562 21.652344 12.359375 21.453125 12.242188 21.261719 C 12.480469 21.210938 12.855469 20.980469 13.144531 20.597656 C 13.679688 19.902344 13.84375 18.394531 13.863281 18.347656 C 13.886719 18.300781 14.027344 18.660156 14.140625 19.097656 C 14.257812 19.535156 15.09375 19.964844 15.09375 19.964844 C 15.09375 19.964844 15.164062 19.921875 15.125 19.640625 C 15.085938 19.359375 14.753906 18.582031 14.753906 18.582031 C 14.753906 18.582031 14.992188 18.824219 14.867188 18.449219 C 14.859375 18.4375 14.851562 18.414062 14.847656 18.398438 C 14.9375 18.410156 15.027344 18.421875 15.109375 18.429688 C 15.21875 18.765625 15.304688 19.097656 15.335938 19.363281 C 15.449219 20.363281 14.753906 21.355469 14.328125 21.796875 C 13.898438 22.238281 14.351562 22.054688 14.351562 22.054688 C 12.351562 23.464844 14.722656 22.328125 15.421875 21.140625 C 15.628906 20.761719 15.839844 19.703125 15.574219 18.449219 C 16.703125 18.421875 17.039062 17.8125 17.125 17.324219 C 17.367188 17.355469 17.59375 17.414062 17.675781 17.519531 C 17.550781 17.339844 18.382812 18.261719 18.242188 17.988281 C 18.058594 17.625 18.382812 17.183594 18.382812 17.183594 C 18.382812 17.183594 19.644531 18.75 19.726562 18.789062 C 19.808594 18.832031 19.695312 18.535156 19.398438 17.949219 C 19.101562 17.363281 19.207031 16.671875 19.207031 16.671875 C 19.207031 16.671875 19.550781 16.894531 19.757812 17.304688 C 19.96875 17.710938 19.886719 18.71875 19.886719 18.71875 L 20.175781 17.359375 C 20.175781 17.359375 20.261719 17.511719 20.445312 18.394531 C 20.632812 19.273438 20.753906 20.914062 20.804688 20.921875 C 20.855469 20.929688 21.089844 18.070312 21.089844 18.070312 C 21.089844 18.070312 21.378906 20.023438 21.539062 19.457031 C 21.703125 18.894531 21.65625 17.714844 21.65625 17.714844 C 21.65625 17.714844 21.890625 19.476562 21.90625 19.550781 C 21.921875 19.625 22.019531 18.527344 22.113281 17.714844 C 22.207031 16.902344 20.660156 14.292969 20.636719 14.25 C 20.609375 14.203125 21.097656 14.539062 21.367188 15.160156 C 21.636719 15.785156 22.816406 16.511719 22.621094 16.320312 C 22.433594 16.144531 21.945312 15.070312 21.878906 14.925781 C 21.855469 14.890625 21.855469 14.875 21.855469 14.875 C 21.855469 14.875 21.875 14.914062 21.878906 14.925781 C 21.9375 15.027344 22.15625 15.300781 22.933594 15.867188 C 23.980469 16.628906 24.917969 16.222656 24.917969 16.222656 C 24.917969 16.222656 24.394531 16.164062 23.828125 15.578125 C 23.261719 14.988281 22.753906 14.488281 22.753906 14.488281 C 22.753906 14.488281 25.867188 13.304688 25.925781 13.300781 C 25.980469 13.292969 27.1875 14.570312 27.277344 14.21875 C 27.367188 13.867188 26.585938 12.988281 26.585938 12.988281 C 26.585938 12.988281 27.140625 12.914062 27.507812 12.59375 C 27.808594 12.328125 27.429688 12.160156 27.292969 12.109375 C 27.15625 12.132812 27.246094 12.09375 27.246094 12.09375 C 27.246094 12.09375 27.265625 12.101562 27.292969 12.109375 C 27.324219 12.105469 27.367188 12.097656 27.425781 12.082031 C 27.75 12.007812 28.894531 13.296875 29.382812 13.957031 C 29.875 14.621094 30.046875 13.519531 29.476562 12.367188 C 28.910156 11.21875 27.183594 9.894531 27.140625 9.832031 C 27.09375 9.773438 27.597656 9.878906 28.179688 10.070312 C 28.761719 10.257812 29.699219 9.59375 29.699219 9.59375 C 29.699219 9.59375 29.6875 9.484375 29.328125 9.320312 C 28.96875 9.152344 27.867188 8.960938 27.867188 8.960938 C 27.867188 8.960938 28.285156 8.863281 27.765625 8.730469 C 27.25 8.597656 25.40625 8.113281 25.261719 8 C 25.117188 7.886719 27.84375 8.246094 29.101562 8.859375 C 30.359375 9.476562 31.199219 11.039062 31.515625 11.875 C 31.828125 12.710938 31.835938 12.035156 31.835938 12.035156 C 31.835938 12.035156 31.949219 12.71875 32.046875 13.304688 C 32.144531 13.890625 32.171875 14.414062 32.433594 14.914062 C 32.691406 15.414062 32.625 13.894531 32.523438 12.691406 C 32.417969 11.488281 31.671875 10.675781 31.28125 10.089844 C 30.890625 9.503906 29.503906 8.285156 27.570312 7.703125 C 26.785156 7.464844 26.027344 7.351562 25.253906 7.355469 C 24.121094 7.355469 22.957031 7.605469 21.636719 8.085938 C 19.40625 8.890625 18.324219 10.332031 17.171875 11.734375 C 16.472656 12.582031 16.523438 12.539062 16.359375 12.496094 C 16.195312 12.453125 16.457031 11.902344 16.457031 11.902344 C 16.457031 11.902344 16.332031 12.0625 16.238281 12.207031 C 16.140625 12.351562 16.207031 12.433594 15.410156 12.882812 C 14.875 13.183594 14.035156 14.230469 13.542969 14.886719 C 12.4375 13.921875 11.273438 12.460938 10.347656 10.242188 C 10.25 9.960938 10.195312 9.792969 10.128906 9.574219 L 9.539062 8.730469 C 9.539062 8.730469 9.703125 8.53125 9.945312 9.027344 C 9.949219 9.039062 9.957031 9.050781 9.960938 9.0625 C 9.9375 8.988281 9.917969 8.929688 9.886719 8.835938 C 9.886719 8.835938 9.941406 9 10.035156 9.214844 C 10.09375 9.332031 10.148438 9.441406 10.203125 9.546875 C 10.390625 9.882812 10.644531 10.199219 10.933594 10.15625 C 10.933594 10.15625 10.417969 9.347656 10.058594 8.300781 C 9.582031 6.917969 9.09375 4.621094 8.515625 3.90625 C 8.082031 3.371094 7.515625 3.058594 6.949219 3.054688 Z M 10.203125 9.546875 C 10.136719 9.433594 10.082031 9.316406 10.035156 9.214844 C 10.011719 9.164062 9.988281 9.113281 9.960938 9.0625 C 10.03125 9.273438 10.085938 9.445312 10.128906 9.574219 L 10.445312 10.035156 C 10.445312 10.035156 10.339844 9.824219 10.203125 9.546875 Z M 12.714844 24.863281 C 12.742188 24.894531 12.753906 24.90625 12.734375 24.878906 C 12.726562 24.875 12.722656 24.871094 12.714844 24.863281 Z M 6.925781 7.871094 C 6.925781 7.871094 7.085938 8.292969 7.1875 8.847656 C 7.285156 9.402344 7.117188 9.976562 7.105469 10.046875 C 7.09375 10.113281 7.316406 9.683594 7.457031 9.320312 C 7.597656 8.953125 7.769531 8.246094 7.769531 8.246094 C 7.769531 8.246094 7.835938 8.4375 7.921875 9.027344 C 8.0625 9.984375 8.742188 10.375 8.742188 10.375 C 8.742188 10.375 8.421875 9.664062 8.453125 9.269531 C 8.480469 8.875 8.765625 8.554688 8.765625 8.554688 C 8.765625 8.554688 8.964844 8.664062 9.054688 9.019531 C 9.144531 9.375 9.46875 9.964844 9.46875 9.964844 C 9.46875 9.964844 9.40625 9.582031 9.382812 9.265625 C 9.363281 8.949219 9.519531 8.464844 9.519531 8.464844 C 9.519531 8.464844 9.441406 8.878906 9.460938 9.433594 C 9.480469 9.984375 9.964844 10.441406 9.964844 10.441406 C 9.964844 10.441406 9.601562 10.273438 9.308594 9.917969 C 9.019531 9.5625 8.773438 8.5625 8.773438 8.5625 C 8.773438 8.5625 8.554688 8.9375 8.585938 9.335938 C 8.605469 9.570312 8.898438 10.480469 8.898438 10.480469 C 8.898438 10.480469 8.28125 10.28125 8.0625 9.984375 C 7.839844 9.6875 7.6875 8.917969 7.6875 8.917969 C 7.6875 8.917969 7.578125 9.292969 7.4375 9.75 C 7.296875 10.203125 6.984375 10.363281 6.984375 10.363281 L 7.003906 8.828125 C 7.003906 8.828125 6.914062 9.027344 6.664062 9.53125 C 6.410156 10.035156 5.496094 10.351562 5.496094 10.351562 C 5.496094 10.351562 5.917969 9.9375 6.167969 9.441406 C 6.421875 8.949219 6.269531 8.402344 6.269531 8.402344 C 6.613281 8.988281 6.371094 9.519531 6.191406 9.789062 C 6.339844 9.597656 6.570312 9.300781 6.714844 9.097656 C 6.933594 8.78125 6.925781 7.871094 6.925781 7.871094 Z M 6.191406 9.789062 C 6.113281 9.894531 6.050781 9.976562 6.050781 9.976562 C 6.050781 9.976562 6.113281 9.910156 6.191406 9.789062 Z M 11.519531 18.875 C 11.519531 18.875 11.804688 19.21875 12.171875 19.367188 C 12.472656 19.492188 12.429688 19.195312 12.40625 19.089844 C 12.332031 19.007812 12.394531 19.054688 12.394531 19.054688 C 12.394531 19.054688 12.398438 19.070312 12.40625 19.089844 C 12.421875 19.109375 12.445312 19.136719 12.480469 19.171875 C 12.660156 19.359375 12.292969 20.441406 12.050781 20.960938 C 11.960938 20.816406 11.875 20.667969 11.796875 20.515625 C 11.570312 20.0625 11.496094 19.5625 11.496094 19.34375 C 11.496094 19.292969 11.5 19.160156 11.480469 18.980469 C 11.507812 18.917969 11.519531 18.875 11.519531 18.875 Z M 11.519531 18.875 " fill-opacity="1" fill-rule="evenodd"/></g><g clip-path="url(#ab84ef6a05)"><path stroke-linecap="butt" transform="matrix(0.0321567, 0, 0, 0.0321567, 1.107184, -3.025756)" fill="none" stroke-linejoin="miter" d="M 181.673756 189.087686 C 152.155252 188.844736 124.580354 205.122429 124.094453 216.541109 C 123.487076 234.762408 145.352634 253.105181 145.352634 253.105181 C 145.352634 253.105181 145.595585 253.105181 145.71706 253.105181 C 148.875419 259.057472 168.189995 296.471871 163.938359 321.617263 C 159.322296 348.949211 163.088031 366.563132 133.448053 412.359329 C 102.957747 459.248803 98.827586 502.251068 113.161674 542.459399 C 111.582495 548.290215 108.788562 558.129716 111.339544 554.606932 C 112.675773 552.906277 114.497902 551.691524 116.441508 550.962672 C 118.628063 556.064635 121.05757 561.045124 123.730027 565.904137 C 119.113965 577.322817 113.890526 590.806578 114.012001 591.899856 C 114.133476 593.964936 118.871014 588.984448 127.252811 577.808718 C 127.860188 576.958391 128.467564 576.229539 129.196416 575.379212 C 131.504448 579.144947 133.933954 582.789206 136.484936 586.433466 C 128.103139 591.171004 117.534785 594.572313 117.534785 594.572313 L 139.400343 590.442152 C 140.493621 591.899856 141.586899 593.357559 142.680177 594.815263 C 140.00772 596.880344 136.484936 599.552801 131.625923 603.075585 C 115.712656 614.615741 83.157269 631.500811 83.643171 632.594089 C 84.129072 633.808842 146.688863 613.400988 146.688863 613.400988 C 146.688863 613.400988 109.760365 636.481299 123.608552 634.780644 C 137.456738 633.07999 161.387377 621.90426 161.387377 621.90426 C 161.387377 621.90426 127.738713 642.069164 126.523959 643.040966 C 125.187731 644.134244 149.239845 636.359824 167.339668 631.25786 C 169.404748 630.650483 171.591304 629.43573 173.899335 627.856551 C 179.122774 631.865237 184.589163 635.14507 190.419979 638.060478 C 192.242109 645.834899 199.287677 660.654888 222.246513 686.286181 C 260.875666 729.531396 298.897442 755.891541 301.326948 759.778751 C 303.756455 763.665961 317.483166 795.856922 320.641524 821.60969 C 323.799883 847.362459 324.042834 904.698811 312.502678 906.035039 C 300.962522 907.492743 279.825816 908.707496 271.444019 910.286676 C 263.062222 911.865855 264.519926 915.996016 264.519926 915.996016 C 264.519926 915.996016 221.03176 916.846343 214.229142 921.462405 C 207.305049 926.078467 206.211771 932.395184 206.211771 932.395184 C 206.211771 932.395184 209.85603 928.022073 218.116352 928.8724 C 226.255199 929.722727 262.697796 930.93748 275.695655 930.816005 C 280.797619 930.69453 285.17073 930.451579 288.81499 930.208628 C 292.45925 928.750925 297.804164 929.358301 297.804164 929.358301 C 297.804164 929.358301 294.402855 929.844202 288.81499 930.208628 C 286.99286 930.93748 285.535156 932.273709 285.292206 934.338789 C 284.563354 940.655506 287.114336 950.859433 287.114336 950.859433 C 287.114336 950.859433 295.374657 940.534031 299.747769 940.29108 C 304.242356 940.169605 304.606782 940.655506 309.708745 937.132722 C 314.689234 933.609937 313.23153 934.095839 323.799883 932.152234 C 334.489711 930.208628 344.936589 927.414696 347.366095 921.826831 C 349.795602 916.117491 351.982158 911.258478 351.982158 911.258478 C 351.982158 911.258478 354.654615 917.575195 362.064609 920.004701 C 369.596079 922.555683 374.576568 917.332244 379.071155 920.733553 C 383.565741 924.134862 387.088526 923.770436 387.088526 923.770436 C 387.088526 923.770436 377.613451 918.304047 377.3705 914.416836 C 377.249025 910.529626 382.593939 910.286676 374.576568 906.399465 C 366.559196 902.512255 354.654615 904.820286 352.71101 895.466686 C 350.88888 886.113086 350.767404 866.79851 350.767404 866.79851 C 350.767404 866.79851 358.177399 865.340806 360.971332 867.284411 C 359.149202 865.219331 354.77609 859.509991 353.925763 854.165077 C 352.589534 846.633607 353.561337 823.310345 355.383467 811.405763 C 357.205597 799.379706 362.671986 788.932828 356.355269 773.991364 C 353.561337 767.431696 349.917077 761.236455 346.272818 755.284164 C 353.682812 753.704985 365.344443 746.537941 374.333617 734.633359 C 390.975736 713.010752 396.0777 666.121278 396.685076 664.663574 C 397.413928 663.20587 401.78704 674.381599 405.309824 687.986836 C 408.954084 701.592072 434.949803 714.954357 434.949803 714.954357 C 434.949803 714.954357 437.136359 713.618129 435.921605 704.871905 C 434.706852 696.125682 424.38145 671.952093 424.38145 671.952093 C 424.38145 671.952093 431.791444 679.483563 427.904234 667.821932 C 427.661284 667.457506 427.418333 666.728654 427.296858 666.242753 C 430.09079 666.607179 432.884722 666.971605 435.435704 667.214555 C 438.837013 677.661433 441.50947 687.986836 442.481273 696.247157 C 446.004057 727.34484 424.38145 758.199572 411.14064 771.926283 C 397.778354 785.652995 411.869492 779.943655 411.869492 779.943655 C 349.674127 823.796246 423.409647 788.446927 445.15373 751.518429 C 451.591922 739.735323 458.151589 706.815511 449.891268 667.821932 C 484.997636 666.971605 495.444513 648.021454 498.116971 632.837039 C 505.648441 633.808842 512.694009 635.630972 515.244991 638.910805 C 511.357781 633.32294 537.232024 661.991117 532.858913 653.487844 C 527.149573 642.190639 537.232024 628.463928 537.232024 628.463928 C 537.232024 628.463928 576.468553 677.175532 579.019535 678.390285 C 581.570517 679.726514 578.047733 670.494389 568.815608 652.273091 C 559.583484 634.051792 562.863317 612.55066 562.863317 612.55066 C 562.863317 612.55066 573.553146 619.474754 579.991338 632.229663 C 586.551005 644.863096 584.000023 676.203729 584.000023 676.203729 L 592.989197 633.930317 C 592.989197 633.930317 595.661654 638.667855 601.370995 666.121278 C 607.20181 693.453225 610.967545 744.47286 612.546724 744.715811 C 614.125903 744.958762 621.414423 656.038826 621.414423 656.038826 C 621.414423 656.038826 630.403597 716.776487 635.384085 699.162565 C 640.486048 681.670119 639.028344 644.984571 639.028344 644.984571 C 639.028344 644.984571 646.316864 699.769942 646.802765 702.077973 C 647.288666 704.386004 650.325549 670.251438 653.240957 644.984571 C 656.156365 619.717704 608.052137 538.572189 607.323285 537.23596 C 606.472958 535.778257 621.657373 546.225134 630.039171 565.539711 C 638.420968 584.975762 675.106515 607.570172 669.032749 601.617881 C 663.201934 596.151492 648.017518 562.745778 645.952438 558.251191 C 645.223586 557.157913 645.223586 556.672012 645.223586 556.672012 C 645.223586 556.672012 645.830963 557.886765 645.952438 558.251191 C 647.774568 561.40955 654.577186 569.912822 678.750775 587.526744 C 711.306161 611.214432 740.460239 598.580998 740.460239 598.580998 C 740.460239 598.580998 724.182545 596.758868 706.568624 578.53757 C 688.954702 560.194796 673.16291 544.645955 673.16291 544.645955 C 673.16291 544.645955 769.978742 507.838932 771.800872 507.717457 C 773.501526 507.474506 811.037401 547.196937 813.831333 536.264158 C 816.625266 525.331379 792.330201 497.999431 792.330201 497.999431 C 792.330201 497.999431 809.579697 495.6914 820.998377 485.730424 C 830.351977 477.470102 818.568871 472.246663 814.317235 470.667484 C 810.065598 471.396336 812.859531 470.181582 812.859531 470.181582 C 812.859531 470.181582 813.466907 470.424533 814.317235 470.667484 C 815.289037 470.546008 816.625266 470.303058 818.447396 469.817157 C 828.529847 467.509125 864.122117 507.595982 879.306532 528.125311 C 894.612423 548.776116 899.957337 514.520075 882.22194 478.684855 C 864.608018 442.97111 810.915926 401.790976 809.579697 399.847371 C 808.121993 398.025241 823.79231 401.305075 841.892133 407.257365 C 859.991956 413.088181 889.146033 392.437376 889.146033 392.437376 C 889.146033 392.437376 888.781607 389.036067 877.605878 383.934104 C 866.430148 378.710665 832.174107 372.758374 832.174107 372.758374 C 832.174107 372.758374 845.171967 369.721491 829.015749 365.59133 C 812.981006 361.461169 755.644654 346.398229 751.150067 342.875445 C 746.65548 339.35266 831.445255 350.52839 870.560309 369.600016 C 909.675363 388.793116 935.792557 437.383245 945.632058 463.378964 C 955.350084 489.374683 955.593035 468.359453 955.593035 468.359453 C 955.593035 468.359453 959.115819 489.617634 962.152702 507.838932 C 965.189585 526.060231 966.039912 542.337924 974.178759 557.886765 C 982.19613 573.435607 980.13105 526.181706 976.972691 488.767307 C 973.692858 451.352908 950.491071 426.08604 938.343539 407.864742 C 926.196007 389.643444 883.072267 351.743143 822.941983 333.64332 C 798.525443 326.233325 774.95923 322.710541 750.907116 322.832016 C 715.679273 322.832016 679.479627 330.606437 638.420968 345.547902 C 569.058559 370.571818 535.409894 415.396212 499.574674 459.005853 C 477.830592 485.365998 479.409771 484.029769 474.307807 482.693541 C 469.205844 481.357312 477.34469 464.229292 477.34469 464.229292 C 477.34469 464.229292 473.45748 469.20978 470.542072 473.704367 C 467.505189 478.198954 469.57027 480.749936 444.789304 494.719598 C 428.147185 504.073197 402.029991 536.628584 386.7241 557.036438 C 352.346584 527.032033 316.146938 481.600263 287.357286 412.60228 C 284.320403 403.856056 282.619749 398.632618 280.554668 391.83 L 262.211894 365.59133 C 262.211894 365.59133 267.313858 359.396088 274.845328 374.823454 C 274.966803 375.18788 275.209754 375.552306 275.331229 375.916732 C 274.602377 373.608701 273.995001 371.786571 273.023198 368.871164 C 273.023198 368.871164 274.723853 373.973127 277.63926 380.65427 C 279.46139 384.29853 281.162045 387.699839 282.862699 390.979672 C 288.693515 401.42655 296.589411 411.266051 305.578585 409.929823 C 305.578585 409.929823 289.543842 384.784431 278.368112 352.229044 C 263.548123 309.22678 248.363708 237.799291 230.38536 215.569307 C 216.901599 198.927188 199.287677 189.209162 181.673756 189.087686 Z M 282.862699 390.979672 C 280.797619 387.456888 279.096964 383.812628 277.63926 380.65427 C 276.910408 379.075091 276.181557 377.495911 275.331229 375.916732 C 277.517785 382.4764 279.21844 387.821314 280.554668 391.83 L 290.394169 406.164088 C 290.394169 406.164088 287.114336 399.60442 282.862699 390.979672 Z M 360.971332 867.284411 C 361.821659 868.256214 362.186085 868.62064 361.578708 867.770313 C 361.335758 867.648837 361.214282 867.527362 360.971332 867.284411 Z M 180.944904 338.866759 C 180.944904 338.866759 185.925392 351.986094 189.08375 369.23559 C 192.120633 386.485085 186.897195 404.341958 186.532769 406.528514 C 186.168343 408.593594 193.092436 395.231309 197.465548 383.934104 C 201.838659 372.515423 207.183573 350.52839 207.183573 350.52839 C 207.183573 350.52839 209.248654 356.480681 211.921111 374.823454 C 216.294223 404.584908 237.430929 416.732441 237.430929 416.732441 C 237.430929 416.732441 227.469952 394.623932 228.441755 382.354924 C 229.292082 370.085917 238.159781 360.12494 238.159781 360.12494 C 238.159781 360.12494 244.355022 363.526249 247.148954 374.580504 C 249.942887 385.634758 260.025339 403.977532 260.025339 403.977532 C 260.025339 403.977532 258.081733 392.07295 257.352882 382.233449 C 256.745505 372.393948 261.604518 357.331008 261.604518 357.331008 C 261.604518 357.331008 259.175011 370.207392 259.782388 387.456888 C 260.389765 404.584908 275.452705 418.797521 275.452705 418.797521 C 275.452705 418.797521 264.1555 413.574082 255.04485 402.519828 C 246.055677 391.465574 238.402731 360.367891 238.402731 360.367891 C 238.402731 360.367891 231.600113 372.029522 232.571916 384.420005 C 233.179292 391.708524 242.289942 420.012274 242.289942 420.012274 C 242.289942 420.012274 223.096841 413.817033 216.294223 404.584908 C 209.370129 395.352784 204.632592 371.422145 204.632592 371.422145 C 204.632592 371.422145 201.231283 383.083776 196.858171 397.296389 C 192.485059 411.387526 182.767034 416.368015 182.767034 416.368015 L 183.37441 368.628213 C 183.37441 368.628213 180.580478 374.823454 172.806057 390.493771 C 164.910161 406.164088 136.484936 416.003589 136.484936 416.003589 C 136.484936 416.003589 149.604271 403.127205 157.378691 387.699839 C 165.274587 372.393948 160.53705 355.387403 160.53705 355.387403 C 171.226878 373.608701 163.695408 390.129345 158.107543 398.511142 C 162.723605 392.558851 169.890649 383.326727 174.385236 377.01001 C 181.187854 367.170509 180.944904 338.866759 180.944904 338.866759 Z M 158.107543 398.511142 C 155.678037 401.790976 153.734432 404.341958 153.734432 404.341958 C 153.734432 404.341958 155.678037 402.276877 158.107543 398.511142 Z M 323.799883 681.062742 C 323.799883 681.062742 332.667581 691.752571 344.086262 696.368633 C 353.439862 700.255843 352.103633 691.023719 351.374781 687.743885 C 349.06675 685.192903 351.010355 686.650607 351.010355 686.650607 C 351.010355 686.650607 351.13183 687.136508 351.374781 687.743885 C 351.860682 688.351262 352.589534 689.201589 353.682812 690.294867 C 359.270677 696.125682 347.851997 729.774346 340.320527 745.930564 C 337.526594 741.435977 334.854137 736.819915 332.424631 732.082378 C 325.379062 717.99124 323.071031 702.442399 323.071031 695.639781 C 323.071031 694.060602 323.192506 689.930441 322.58513 684.342576 C 323.435457 682.398971 323.799883 681.062742 323.799883 681.062742 Z M 323.799883 681.062742 " stroke="#000000" stroke-width="0.652" stroke-opacity="1" stroke-miterlimit="4"/></g><path stroke-linecap="butt" transform="matrix(0.0321567, 0, 0, 0.0321567, 1.107184, -3.025756)" fill-opacity="1" fill="#ffffff" fill-rule="evenodd" stroke-linejoin="miter" d="M 142.194276 243.994532 C 141.586899 246.302563 105.751679 296.107445 123.487076 314.450219 C 141.100998 332.914468 182.159657 324.775622 142.194276 243.994532 Z M 142.194276 243.994532 " stroke="#000000" stroke-width="0.652" stroke-opacity="1" stroke-miterlimit="4"/><path fill="#ffffff" d="M 6.511719 4.054688 C 6.511719 4.132812 6.425781 4.171875 6.253906 4.171875 C 6.082031 4.171875 5.996094 4.132812 5.996094 4.054688 C 5.996094 3.976562 6.082031 3.9375 6.253906 3.9375 C 6.425781 3.9375 6.511719 3.976562 6.511719 4.054688 Z M 6.511719 4.054688 " fill-opacity="1" fill-rule="nonzero"/><g clip-path="url(#fd5370811a)"><path fill="#ffffff" d="M 5.097656 3.601562 C 5.097656 3.601562 4.882812 2.929688 5.332031 2.363281 C 5.78125 1.796875 6.1875 1.460938 6.230469 1.671875 C 6.273438 1.878906 6.164062 2.046875 6.164062 2.046875 C 6.164062 2.046875 6.699219 1.503906 7.105469 1.566406 C 7.511719 1.628906 6.957031 2.003906 6.957031 2.003906 C 6.957031 2.003906 7.746094 1.566406 8.066406 1.773438 C 8.386719 1.984375 7.683594 2.152344 7.683594 2.152344 C 7.683594 2.152344 8.28125 1.902344 8.492188 2.132812 C 8.707031 2.363281 8.34375 2.425781 8.34375 2.425781 C 8.34375 2.425781 8.921875 2.277344 9.089844 2.46875 C 9.261719 2.65625 8.855469 2.742188 8.855469 2.742188 C 8.855469 2.742188 9.328125 2.886719 9.433594 3.097656 C 9.539062 3.308594 8.746094 3.921875 8.746094 3.921875 C 8.746094 3.921875 8.53125 3.019531 6.984375 2.957031 C 5.882812 2.917969 5.097656 3.601562 5.097656 3.601562 Z M 5.097656 3.601562 " fill-opacity="1" fill-rule="evenodd"/></g><g clip-path="url(#a80aeb9a6b)"><path stroke-linecap="butt" transform="matrix(0.0321567, 0, 0, 0.0321567, 1.107184, -3.025756)" fill="none" stroke-linejoin="miter" d="M 124.094453 206.094232 C 124.094453 206.094232 117.41331 185.200476 131.382972 167.586554 C 145.352634 149.972633 157.986068 139.525755 159.322296 146.085422 C 160.658525 152.523614 157.257216 157.747053 157.257216 157.747053 C 157.257216 157.747053 173.899335 140.861983 186.532769 142.805589 C 199.166202 144.749194 181.916706 156.410825 181.916706 156.410825 C 181.916706 156.410825 206.454721 142.805589 216.415698 149.243781 C 226.376674 155.803448 204.511116 161.026887 204.511116 161.026887 C 204.511116 161.026887 223.096841 153.252466 229.656508 160.41951 C 236.337651 167.586554 225.040446 169.53016 225.040446 169.53016 C 225.040446 169.53016 243.018793 164.914097 248.242232 170.866388 C 253.587147 176.697204 240.953713 179.369661 240.953713 179.369661 C 240.953713 179.369661 255.652227 183.864248 258.932061 190.423915 C 262.211894 196.983582 237.552404 216.055208 237.552404 216.055208 C 237.552404 216.055208 230.871261 187.994409 182.767034 186.050803 C 148.510993 184.83605 124.094453 206.094232 124.094453 206.094232 Z M 124.094453 206.094232 " stroke="#000000" stroke-width="0.652" stroke-opacity="1" stroke-miterlimit="4"/></g><path stroke-linecap="butt" transform="matrix(0.0321567, 0, 0, 0.0321567, 1.107184, -3.025756)" fill-opacity="1" fill="#ffffff" fill-rule="evenodd" stroke-linejoin="miter" d="M 205.361444 546.953986 C 205.361444 546.953986 150.940499 522.051545 183.860311 461.070933 C 216.658649 400.211797 327.565618 499.943036 327.565618 499.943036 C 327.565618 499.943036 208.884228 405.192285 181.916706 473.09699 C 164.667211 516.585156 205.361444 546.953986 205.361444 546.953986 Z M 205.361444 546.953986 " stroke="#000000" stroke-width="0.652" stroke-opacity="1" stroke-miterlimit="4"/><g clip-path="url(#fece5310f5)"><path stroke-linecap="round" transform="matrix(0.0321567, 0, 0, 0.0321567, 1.107184, -3.025756)" fill="none" stroke-linejoin="round" d="M 124.215928 216.176683 C 124.215928 216.176683 111.582495 218.363239 99.434962 221.764548 C 85.586776 225.773234 72.710391 242.658304 72.710391 242.658304 C 72.710391 242.658304 96.155129 235.369784 110.003315 240.228797 C 123.730027 244.966335 138.064115 248.367644 138.064115 248.367644 C 138.064115 248.367644 122.029372 232.454377 124.215928 216.176683 Z M 124.215928 216.176683 " stroke="#000000" stroke-width="3.259" stroke-opacity="1" stroke-miterlimit="4"/></g></svg>