<svg xmlns="http://www.w3.org/2000/svg" xmlns:xlink="http://www.w3.org/1999/xlink" width="40" zoomAndPan="magnify" viewBox="0 0 30 30.000001" height="40" preserveAspectRatio="xMidYMid meet" version="1.0"><defs><clipPath id="e644ba1140"><path d="M 3.386719 0.933594 L 26.613281 0.933594 L 26.613281 27.789062 L 3.386719 27.789062 Z M 3.386719 0.933594 " clip-rule="nonzero"/></clipPath></defs><path fill="#ffffff" d="M 5.664062 7.953125 C 5.726562 7.789062 5.75 7.613281 5.738281 7.441406 C 5.722656 7.277344 5.664062 7.121094 5.550781 7.003906 C 5.46875 6.917969 5.34375 6.808594 5.222656 6.792969 C 5.21875 6.792969 5.21875 6.796875 5.21875 6.800781 C 5.355469 6.859375 5.441406 7 5.5 7.125 C 5.570312 7.269531 5.601562 7.441406 5.59375 7.601562 C 5.574219 7.886719 5.355469 8.160156 5.410156 8.453125 C 5.414062 8.460938 5.425781 8.460938 5.425781 8.453125 C 5.4375 8.351562 5.464844 8.265625 5.523438 8.183594 C 5.578125 8.105469 5.628906 8.042969 5.664062 7.953125 " fill-opacity="1" fill-rule="nonzero"/><path fill="#ffffff" d="M 6.328125 5.105469 C 6.207031 5.148438 6.09375 5.21875 6 5.304688 C 5.890625 5.402344 5.796875 5.519531 5.675781 5.609375 C 5.535156 5.710938 5.402344 5.730469 5.226562 5.714844 C 5.222656 5.714844 5.390625 5.828125 5.546875 5.773438 C 5.542969 5.867188 5.664062 5.96875 5.738281 6.007812 C 5.890625 6.089844 6.089844 6.066406 6.238281 5.980469 C 6.378906 5.898438 6.480469 5.769531 6.527344 5.613281 C 6.570312 5.480469 6.542969 5.3125 6.460938 5.191406 C 6.554688 5.171875 6.652344 5.164062 6.746094 5.164062 C 6.753906 5.164062 6.535156 5.035156 6.328125 5.105469 Z M 6.023438 5.683594 C 6.121094 5.617188 6.179688 5.476562 6.085938 5.394531 C 6.125 5.359375 6.167969 5.324219 6.214844 5.292969 C 6.222656 5.324219 6.234375 5.355469 6.242188 5.382812 C 6.25 5.414062 6.25 5.445312 6.25 5.472656 C 6.238281 5.53125 6.210938 5.589844 6.171875 5.632812 C 6.128906 5.6875 6.035156 5.726562 5.957031 5.71875 C 5.980469 5.710938 6.003906 5.699219 6.023438 5.683594 Z M 6.464844 5.449219 C 6.460938 5.46875 6.457031 5.492188 6.453125 5.515625 C 6.433594 5.636719 6.363281 5.738281 6.273438 5.816406 C 6.171875 5.898438 6.058594 5.941406 5.925781 5.933594 C 5.8125 5.921875 5.679688 5.859375 5.65625 5.742188 C 5.699219 5.722656 5.742188 5.695312 5.78125 5.667969 C 5.785156 5.675781 5.789062 5.679688 5.792969 5.6875 C 5.820312 5.828125 6.027344 5.875 6.164062 5.785156 C 6.335938 5.671875 6.40625 5.421875 6.28125 5.253906 C 6.320312 5.234375 6.359375 5.21875 6.398438 5.207031 C 6.421875 5.273438 6.453125 5.332031 6.460938 5.402344 C 6.464844 5.417969 6.464844 5.433594 6.464844 5.449219 " fill-opacity="1" fill-rule="nonzero"/><g clip-path="url(#e644ba1140)"><path fill="#ffffff" d="M 26.519531 10.265625 C 26.429688 9.722656 26.191406 9.117188 25.847656 8.5625 C 25.226562 7.554688 24.09375 6.726562 22.820312 6.347656 C 21.734375 6.023438 20.042969 5.875 18.144531 7.003906 C 17.382812 7.457031 16.765625 8.105469 16.304688 8.929688 C 15.941406 9.582031 15.675781 10.351562 15.519531 11.207031 C 15.363281 12.085938 15.351562 12.878906 15.367188 13.378906 C 15.300781 13.308594 15.222656 13.246094 15.140625 13.175781 C 14.964844 13.027344 14.59375 12.886719 14.59375 12.886719 C 14.59375 12.886719 14.597656 12.890625 14.597656 12.890625 C 14.679688 12.992188 14.742188 13.105469 14.796875 13.234375 C 14.875 13.421875 14.949219 13.613281 15.003906 13.808594 C 15.058594 14.011719 15.070312 14.230469 15.011719 14.433594 C 14.984375 14.527344 14.929688 14.613281 14.859375 14.679688 C 14.84375 14.699219 14.8125 14.726562 14.785156 14.746094 C 14.640625 14.644531 14.496094 14.546875 14.351562 14.449219 C 14.117188 14.289062 13.890625 14.121094 13.644531 13.976562 C 13.253906 13.746094 12.871094 13.523438 12.558594 13.191406 C 12.421875 13.042969 12.289062 12.898438 12.152344 12.753906 C 12.09375 12.695312 12.050781 12.617188 12.007812 12.546875 C 11.878906 12.226562 11.746094 11.90625 11.605469 11.585938 C 11.417969 11.160156 11.207031 10.746094 10.988281 10.332031 C 10.808594 9.996094 10.648438 9.648438 10.417969 9.347656 C 10.371094 9.195312 10.320312 9.042969 10.265625 8.894531 C 10.082031 8.382812 9.871094 7.878906 9.589844 7.410156 C 9.324219 6.972656 9.015625 6.550781 8.648438 6.191406 C 8.46875 6.015625 8.277344 5.855469 8.078125 5.699219 C 7.976562 5.613281 7.871094 5.523438 7.757812 5.457031 C 7.683594 5.414062 7.609375 5.382812 7.535156 5.359375 C 7.527344 5.347656 7.519531 5.335938 7.515625 5.324219 C 7.5 5.296875 7.484375 5.273438 7.46875 5.246094 C 7.457031 5.222656 7.445312 5.199219 7.429688 5.179688 C 7.425781 5.171875 7.417969 5.160156 7.414062 5.15625 C 7.328125 5.050781 7.195312 4.96875 7.101562 4.910156 C 7.023438 4.867188 6.941406 4.84375 6.859375 4.820312 C 6.925781 4.753906 7.003906 4.703125 7.082031 4.652344 C 7.164062 4.605469 7.253906 4.582031 7.335938 4.539062 C 7.199219 4.476562 7.097656 4.472656 7.023438 4.46875 C 6.894531 4.46875 6.777344 4.492188 6.65625 4.53125 C 6.835938 4.402344 7.015625 4.277344 7.214844 4.1875 C 7.414062 4.097656 7.625 4.042969 7.828125 3.96875 C 8.011719 3.898438 8.191406 3.808594 8.3125 3.648438 C 8.433594 3.492188 8.476562 3.296875 8.460938 3.105469 C 8.441406 2.863281 8.226562 2.425781 8.222656 2.425781 C 8.230469 2.589844 8.1875 2.789062 8.027344 2.867188 C 8.011719 2.707031 8.070312 2.550781 8.03125 2.386719 C 7.984375 2.171875 7.804688 2.066406 7.652344 1.925781 C 7.566406 1.84375 7.476562 1.761719 7.402344 1.667969 C 7.476562 1.886719 7.539062 2.125 7.457031 2.351562 C 7.417969 2.46875 7.257812 2.660156 7.164062 2.472656 C 7.070312 2.28125 7.148438 2.023438 7.164062 1.828125 C 7.183594 1.617188 7.148438 1.425781 7.003906 1.261719 C 6.863281 1.097656 6.671875 1.003906 6.46875 0.933594 C 6.59375 1.164062 6.671875 1.394531 6.644531 1.660156 C 6.625 1.886719 6.558594 2.117188 6.46875 2.328125 C 6.4375 2.394531 6.328125 2.644531 6.21875 2.582031 C 6.160156 2.546875 6.167969 2.433594 6.167969 2.378906 C 6.167969 2.238281 6.191406 2.097656 6.195312 1.960938 C 6.199219 1.808594 6.195312 1.644531 6.121094 1.507812 C 6.050781 1.386719 5.933594 1.316406 5.816406 1.25 C 5.921875 1.5 5.816406 1.726562 5.71875 1.957031 C 5.605469 2.222656 5.617188 2.507812 5.542969 2.78125 C 5.523438 2.855469 5.496094 2.960938 5.429688 3.003906 C 5.238281 3.136719 5.296875 2.707031 5.3125 2.621094 C 5.328125 2.511719 5.34375 2.394531 5.339844 2.285156 C 5.332031 2.117188 5.304688 1.953125 5.269531 1.789062 C 5.261719 1.753906 5.25 1.714844 5.242188 1.679688 C 5.242188 1.679688 5.125 1.941406 4.96875 2.117188 C 4.867188 2.234375 4.769531 2.359375 4.703125 2.503906 C 4.632812 2.664062 4.613281 2.839844 4.597656 3.011719 C 4.578125 3.191406 4.578125 3.375 4.515625 3.542969 C 4.46875 3.664062 4.359375 3.84375 4.207031 3.808594 C 4.03125 3.769531 4.085938 3.523438 4.105469 3.402344 C 4.140625 3.222656 4.121094 3.097656 4.019531 2.945312 C 4.003906 3.082031 3.976562 3.210938 3.90625 3.332031 C 3.824219 3.46875 3.707031 3.585938 3.621094 3.71875 C 3.421875 4.027344 3.398438 4.441406 3.511719 4.785156 C 3.570312 4.960938 3.675781 5.09375 3.804688 5.21875 C 3.800781 5.214844 3.667969 5.429688 3.660156 5.453125 C 3.621094 5.535156 3.605469 5.628906 3.613281 5.71875 C 3.632812 5.921875 3.773438 6.074219 3.917969 6.203125 C 3.691406 6.488281 3.523438 6.941406 3.5 7.300781 C 3.496094 7.359375 3.496094 7.414062 3.507812 7.46875 C 3.644531 7.308594 3.894531 7.167969 4.089844 7.121094 C 4.285156 7.074219 4.515625 6.992188 4.765625 6.988281 C 4.6875 6.988281 4.453125 7.347656 4.402344 7.410156 C 4.273438 7.574219 4.148438 7.746094 4.070312 7.941406 C 3.941406 8.261719 3.976562 8.644531 4.238281 8.882812 C 4.542969 9.160156 5.039062 9.207031 5.433594 9.167969 C 5.34375 9.273438 5.273438 9.394531 5.207031 9.511719 C 5.011719 9.863281 4.8125 10.222656 4.628906 10.578125 C 4.492188 10.839844 4.367188 11.105469 4.234375 11.371094 C 3.988281 11.863281 3.84375 12.421875 3.746094 12.960938 C 3.648438 13.476562 3.589844 14.007812 3.636719 14.53125 C 3.683594 15.003906 3.820312 15.46875 4.015625 15.902344 C 4.355469 16.660156 4.863281 17.316406 5.4375 17.914062 C 5.734375 18.222656 6.046875 18.515625 6.371094 18.800781 C 6.71875 19.109375 7.089844 19.386719 7.445312 19.6875 C 7.703125 19.90625 7.984375 20.113281 8.234375 20.347656 C 8.503906 20.601562 8.714844 20.898438 8.925781 21.203125 C 9.027344 21.347656 9.121094 21.5 9.21875 21.652344 C 9.324219 21.8125 9.445312 21.964844 9.554688 22.121094 C 9.773438 22.425781 9.953125 22.757812 10.128906 23.089844 C 10.214844 23.246094 10.304688 23.398438 10.378906 23.558594 C 10.394531 23.582031 10.40625 23.609375 10.417969 23.632812 C 10.441406 23.851562 10.46875 24.070312 10.496094 24.289062 C 10.511719 24.425781 10.53125 24.566406 10.53125 24.703125 C 10.535156 24.851562 10.5625 24.996094 10.570312 25.140625 C 10.589844 25.605469 10.199219 25.894531 9.808594 26.058594 C 9.558594 26.164062 9.300781 26.15625 9.039062 26.210938 C 8.785156 26.257812 8.554688 26.382812 8.304688 26.4375 C 7.988281 26.503906 7.664062 26.503906 7.371094 26.644531 C 7.261719 26.699219 7.117188 26.8125 7.070312 26.941406 C 6.964844 26.960938 6.886719 27.050781 6.835938 27.144531 C 6.742188 27.304688 6.871094 27.53125 6.867188 27.539062 C 6.867188 27.546875 6.933594 27.433594 6.945312 27.410156 C 6.972656 27.359375 7.003906 27.308594 7.054688 27.28125 C 7.179688 27.214844 7.351562 27.292969 7.472656 27.316406 C 7.617188 27.347656 7.761719 27.347656 7.902344 27.324219 C 8.054688 27.300781 8.203125 27.261719 8.339844 27.1875 C 8.464844 27.117188 8.570312 27.023438 8.710938 26.988281 C 8.855469 26.949219 9.011719 26.972656 9.15625 26.957031 C 9.308594 26.941406 9.445312 26.921875 9.582031 26.859375 C 9.597656 26.851562 9.613281 26.84375 9.625 26.835938 C 9.609375 26.851562 9.589844 26.867188 9.574219 26.878906 C 9.496094 26.949219 9.425781 27.015625 9.335938 27.070312 C 9.242188 27.121094 9.144531 27.167969 9.050781 27.222656 C 8.917969 27.296875 8.8125 27.40625 8.714844 27.519531 C 8.601562 27.507812 8.472656 27.582031 8.40625 27.667969 C 8.3125 27.800781 8.308594 27.960938 8.410156 28.089844 C 8.414062 28.09375 8.496094 27.949219 8.550781 27.890625 C 8.582031 27.855469 8.640625 27.847656 8.695312 27.84375 C 8.882812 27.925781 9.132812 27.886719 9.316406 27.828125 C 9.449219 27.785156 9.558594 27.699219 9.667969 27.613281 C 9.730469 27.558594 9.796875 27.503906 9.851562 27.441406 C 9.871094 27.417969 9.886719 27.390625 9.902344 27.367188 C 9.976562 27.34375 10.054688 27.332031 10.125 27.308594 C 10.222656 27.273438 10.304688 27.226562 10.382812 27.160156 C 10.4375 27.109375 10.480469 27.035156 10.546875 26.996094 C 10.597656 26.964844 10.734375 27.054688 10.78125 27.074219 C 10.871094 27.109375 10.972656 27.117188 11.066406 27.128906 C 11.179688 27.144531 11.34375 27.164062 11.476562 27.125 C 11.511719 27.171875 11.5625 27.214844 11.605469 27.246094 C 11.6875 27.3125 11.785156 27.355469 11.886719 27.371094 C 11.992188 27.390625 12.09375 27.378906 12.195312 27.359375 C 12.25 27.347656 12.304688 27.332031 12.359375 27.3125 C 12.40625 27.292969 12.699219 27.089844 12.894531 27.363281 C 12.898438 27.371094 12.988281 27.179688 12.851562 27.054688 C 12.796875 27 12.667969 26.945312 12.585938 26.984375 C 12.554688 26.945312 12.523438 26.914062 12.496094 26.886719 C 12.324219 26.738281 12.097656 26.683594 11.878906 26.660156 C 11.675781 26.632812 11.445312 26.644531 11.253906 26.558594 C 11.15625 26.515625 11.089844 26.429688 11.050781 26.332031 C 11.027344 26.265625 11.035156 26.183594 11.023438 26.109375 C 11.070312 26.121094 11.117188 26.136719 11.164062 26.160156 C 11.273438 26.210938 11.488281 26.402344 11.488281 26.394531 C 11.550781 26.15625 11.445312 25.898438 11.320312 25.703125 C 11.289062 25.660156 11.242188 25.597656 11.183594 25.542969 C 11.195312 25.507812 11.195312 25.46875 11.195312 25.429688 C 11.1875 25.3125 11.191406 25.195312 11.191406 25.082031 C 11.199219 24.855469 11.214844 24.628906 11.246094 24.402344 C 11.277344 24.183594 11.300781 23.964844 11.324219 23.746094 C 11.335938 23.640625 11.339844 23.523438 11.363281 23.410156 C 11.410156 23.347656 11.460938 23.285156 11.519531 23.226562 C 11.71875 23.03125 11.984375 22.921875 12.203125 22.75 C 12.558594 22.476562 12.765625 22.113281 13.019531 21.753906 C 13.171875 21.8125 13.324219 21.863281 13.480469 21.914062 C 13.800781 22.011719 14.136719 22.097656 14.472656 22.125 C 14.613281 22.132812 14.789062 22.136719 14.90625 22.042969 C 15.117188 21.882812 14.953125 21.558594 14.828125 21.402344 C 14.800781 21.363281 14.773438 21.332031 14.742188 21.296875 C 14.792969 21.148438 14.71875 20.96875 14.65625 20.835938 C 14.640625 20.804688 14.625 20.773438 14.609375 20.746094 C 14.621094 20.683594 14.625 20.621094 14.628906 20.550781 C 14.636719 20.429688 14.652344 20.3125 14.648438 20.191406 C 14.644531 20.179688 14.644531 20.164062 14.644531 20.152344 C 14.648438 20.171875 14.65625 20.191406 14.660156 20.210938 C 14.707031 20.355469 14.757812 20.503906 14.847656 20.625 C 15.085938 20.945312 15.324219 21.105469 15.324219 21.105469 C 15.324219 21.105469 15.285156 20.742188 15.28125 20.558594 C 15.28125 20.351562 15.304688 20.148438 15.320312 19.945312 C 15.328125 19.804688 15.339844 19.664062 15.328125 19.523438 C 15.351562 19.59375 15.375 19.660156 15.402344 19.730469 C 15.464844 19.886719 15.519531 20.042969 15.554688 20.203125 C 15.570312 20.285156 15.574219 20.367188 15.589844 20.445312 C 15.601562 20.527344 15.625 20.605469 15.640625 20.683594 C 15.640625 20.695312 15.875 20.335938 15.984375 19.917969 C 16.050781 19.667969 16.105469 19.417969 16.136719 19.164062 C 16.171875 18.910156 16.175781 18.65625 16.113281 18.410156 C 16.078125 18.261719 16.027344 18.117188 15.980469 17.972656 C 15.988281 17.984375 15.996094 18 16 18.015625 C 16.082031 18.183594 16.171875 18.34375 16.25 18.511719 C 16.332031 18.691406 16.371094 18.882812 16.390625 19.074219 C 16.410156 19.25 16.457031 19.6875 16.460938 19.675781 C 16.488281 19.613281 16.519531 19.558594 16.539062 19.5 C 16.699219 19.144531 16.773438 18.789062 16.785156 18.390625 C 16.785156 18.386719 16.785156 18.382812 16.785156 18.382812 C 16.933594 18.453125 17.082031 18.515625 17.238281 18.570312 C 17.515625 18.660156 17.800781 18.730469 18.09375 18.773438 C 18.25 18.796875 18.410156 18.8125 18.570312 18.824219 C 18.648438 19.292969 18.617188 19.78125 18.609375 20.253906 C 18.609375 20.519531 18.59375 20.789062 18.605469 21.054688 C 18.613281 21.199219 18.6875 21.359375 18.855469 21.300781 C 19.09375 21.214844 19.207031 20.945312 19.285156 20.726562 C 19.382812 20.453125 19.453125 20.164062 19.480469 19.878906 C 19.503906 19.601562 19.496094 19.316406 19.484375 19.035156 C 19.480469 18.976562 19.480469 18.917969 19.472656 18.855469 C 19.59375 18.855469 19.714844 18.851562 19.835938 18.84375 C 19.878906 18.84375 19.921875 18.839844 19.964844 18.835938 C 19.96875 19.097656 19.941406 19.363281 19.925781 19.628906 C 19.910156 19.859375 19.828125 20.351562 20.039062 20.523438 C 20.238281 20.6875 20.507812 20.277344 20.589844 20.132812 C 20.695312 19.9375 20.730469 19.699219 20.785156 19.484375 C 20.859375 19.191406 20.894531 18.894531 20.902344 18.589844 C 20.902344 18.582031 20.902344 18.574219 20.902344 18.566406 C 21.019531 18.515625 21.167969 18.445312 21.246094 18.390625 C 21.558594 18.1875 21.722656 17.902344 21.722656 17.609375 C 21.722656 17.53125 21.710938 17.453125 21.6875 17.375 C 21.757812 17.375 21.832031 17.359375 21.894531 17.351562 C 22.132812 17.316406 22.367188 17.25 22.601562 17.191406 C 22.835938 17.136719 23.070312 17.070312 23.296875 16.976562 C 23.722656 16.808594 24.28125 16.488281 24.246094 15.953125 C 24.222656 15.59375 23.941406 15.386719 23.628906 15.28125 C 24.105469 15.175781 24.59375 15 24.800781 14.578125 C 24.804688 14.632812 24.804688 14.6875 24.804688 14.742188 C 24.816406 15.261719 24.824219 15.707031 25 16.128906 C 25.035156 16.214844 25.140625 16.46875 25.316406 16.46875 C 25.328125 16.46875 25.339844 16.464844 25.347656 16.464844 C 25.457031 16.445312 25.621094 16.339844 25.785156 15.632812 C 25.871094 15.253906 25.941406 14.757812 25.96875 14.363281 C 26 13.828125 25.941406 12.925781 25.679688 12.007812 C 25.472656 11.28125 25.171875 10.644531 24.78125 10.109375 C 24.78125 10.066406 24.777344 10.023438 24.773438 9.980469 C 24.757812 9.867188 24.730469 9.761719 24.699219 9.65625 C 24.636719 9.433594 24.554688 9.21875 24.445312 9.015625 C 24.378906 8.894531 24.304688 8.769531 24.222656 8.652344 C 24.453125 8.851562 24.648438 9.066406 24.804688 9.285156 C 25.148438 9.773438 25.40625 10.304688 25.617188 10.730469 C 25.894531 11.296875 26.023438 11.546875 26.195312 11.5625 C 26.242188 11.566406 26.308594 11.550781 26.371094 11.46875 C 26.550781 11.214844 26.605469 10.785156 26.519531 10.265625 Z M 15.125 14.640625 C 15.253906 14.414062 15.25 14.128906 15.207031 13.882812 C 15.167969 13.640625 15.058594 13.414062 14.9375 13.207031 C 14.925781 13.191406 14.917969 13.175781 14.90625 13.160156 C 15.085938 13.308594 15.238281 13.460938 15.363281 13.664062 C 15.484375 13.867188 15.566406 14.09375 15.613281 14.324219 C 15.636719 14.453125 15.660156 14.847656 15.664062 14.914062 C 15.664062 14.980469 15.652344 15.042969 15.644531 15.109375 C 15.644531 15.121094 15.792969 14.867188 15.867188 14.746094 C 15.9375 14.640625 15.996094 14.539062 16.039062 14.421875 C 16.039062 14.421875 16.039062 14.417969 16.039062 14.417969 C 16.050781 14.496094 16.0625 14.574219 16.070312 14.652344 C 16.09375 14.859375 16.101562 15.070312 16.082031 15.277344 C 16.066406 15.449219 16.0625 15.613281 16.0625 15.785156 C 16.058594 15.804688 16.402344 15.460938 16.511719 15.378906 C 16.617188 15.300781 16.726562 15.226562 16.824219 15.144531 C 16.761719 15.246094 16.699219 15.347656 16.644531 15.453125 C 16.585938 15.566406 16.539062 15.683594 16.484375 15.800781 C 16.445312 15.875 16.414062 15.964844 16.351562 16.023438 C 16.285156 16.09375 16.214844 16.140625 16.167969 16.226562 C 16.152344 16.203125 16.140625 16.183594 16.125 16.164062 C 15.816406 15.710938 15.441406 15.285156 15.023438 14.933594 C 14.996094 14.910156 14.964844 14.886719 14.9375 14.863281 C 15.015625 14.808594 15.082031 14.710938 15.125 14.640625 Z M 16.949219 15.09375 C 17.007812 15.082031 17.066406 15.074219 17.128906 15.066406 C 17.058594 15.132812 17 15.21875 16.953125 15.285156 C 16.871094 15.398438 16.800781 15.511719 16.742188 15.636719 C 16.738281 15.640625 16.738281 15.640625 16.738281 15.644531 C 16.746094 15.621094 16.753906 15.597656 16.761719 15.574219 C 16.785156 15.492188 16.828125 15.414062 16.859375 15.335938 C 16.886719 15.253906 16.917969 15.175781 16.949219 15.09375 Z M 18.492188 15.445312 C 18.539062 15.484375 18.585938 15.523438 18.632812 15.566406 C 18.738281 15.667969 18.835938 15.773438 18.925781 15.882812 C 18.894531 15.882812 18.863281 15.890625 18.832031 15.894531 C 18.714844 15.914062 18.601562 15.957031 18.488281 15.996094 C 18.390625 16.027344 18.292969 16.066406 18.203125 16.117188 C 18.167969 16.136719 18.125 16.160156 18.09375 16.191406 C 17.964844 16.097656 17.828125 16.019531 17.683594 15.960938 C 17.785156 15.859375 17.941406 15.761719 18.058594 15.683594 C 18.15625 15.621094 18.257812 15.5625 18.359375 15.507812 C 18.394531 15.488281 18.429688 15.46875 18.46875 15.453125 C 18.472656 15.449219 18.480469 15.449219 18.488281 15.445312 C 18.484375 15.445312 18.484375 15.449219 18.492188 15.445312 Z M 19.53125 16.84375 C 19.445312 16.828125 19.34375 16.835938 19.28125 16.847656 C 19.179688 16.863281 19.078125 16.878906 18.976562 16.898438 C 18.921875 16.90625 18.847656 16.910156 18.800781 16.941406 C 18.796875 16.941406 18.792969 16.945312 18.789062 16.949219 C 18.777344 16.929688 18.761719 16.910156 18.75 16.890625 C 19.003906 16.84375 19.253906 16.8125 19.507812 16.796875 C 19.515625 16.8125 19.523438 16.828125 19.53125 16.84375 Z M 18.855469 17.046875 C 18.859375 17.046875 18.867188 17.042969 18.871094 17.039062 C 18.863281 17.042969 18.859375 17.046875 18.855469 17.050781 C 18.855469 17.050781 18.855469 17.046875 18.855469 17.046875 Z M 18.605469 16.695312 C 18.492188 16.550781 18.363281 16.410156 18.222656 16.292969 C 18.246094 16.277344 18.269531 16.265625 18.289062 16.257812 C 18.378906 16.21875 18.46875 16.191406 18.558594 16.160156 C 18.664062 16.125 18.773438 16.097656 18.878906 16.0625 C 18.929688 16.046875 18.980469 16.027344 19.035156 16.011719 C 19.175781 16.195312 19.304688 16.394531 19.410156 16.597656 C 19.140625 16.613281 18.871094 16.648438 18.605469 16.695312 Z M 18.316406 15.355469 C 18.199219 15.40625 18.085938 15.472656 17.976562 15.542969 C 17.863281 15.617188 17.75 15.695312 17.644531 15.78125 C 17.609375 15.8125 17.554688 15.859375 17.527344 15.910156 C 17.511719 15.90625 17.496094 15.898438 17.476562 15.894531 C 17.503906 15.863281 17.53125 15.832031 17.5625 15.804688 C 17.636719 15.730469 17.722656 15.664062 17.804688 15.601562 C 17.894531 15.527344 17.980469 15.453125 18.074219 15.386719 C 18.128906 15.347656 18.199219 15.324219 18.25 15.285156 C 18.28125 15.304688 18.3125 15.324219 18.34375 15.34375 C 18.332031 15.347656 18.324219 15.351562 18.316406 15.355469 Z M 18.015625 15.222656 C 17.910156 15.28125 17.816406 15.363281 17.722656 15.4375 C 17.636719 15.511719 17.546875 15.585938 17.472656 15.671875 C 17.421875 15.726562 17.367188 15.796875 17.34375 15.871094 C 17.230469 15.855469 17.113281 15.851562 16.996094 15.859375 C 17.078125 15.730469 17.15625 15.59375 17.238281 15.464844 C 17.328125 15.324219 17.414062 15.183594 17.554688 15.082031 C 17.5625 15.078125 17.570312 15.074219 17.574219 15.070312 C 17.742188 15.089844 17.90625 15.128906 18.066406 15.195312 C 18.046875 15.203125 18.03125 15.214844 18.015625 15.222656 Z M 17.140625 15.378906 C 17.046875 15.519531 16.902344 15.695312 16.890625 15.867188 C 16.863281 15.871094 16.835938 15.875 16.808594 15.878906 C 16.824219 15.847656 16.839844 15.808594 16.855469 15.78125 C 16.914062 15.667969 16.964844 15.554688 17.027344 15.445312 C 17.101562 15.324219 17.175781 15.160156 17.28125 15.058594 C 17.316406 15.054688 17.347656 15.054688 17.382812 15.054688 C 17.28125 15.144531 17.207031 15.273438 17.140625 15.378906 Z M 16.675781 15.90625 C 16.65625 15.910156 16.640625 15.914062 16.621094 15.917969 C 16.644531 15.878906 16.664062 15.835938 16.679688 15.792969 C 16.671875 15.832031 16.667969 15.867188 16.675781 15.90625 Z M 3.8125 5.578125 C 3.828125 5.484375 3.882812 5.40625 3.9375 5.332031 C 3.96875 5.296875 4.066406 5.183594 4.066406 5.183594 C 4.066406 5.183594 4.019531 5.113281 3.996094 5.085938 C 3.929688 5.015625 3.890625 4.929688 3.855469 4.839844 C 3.761719 4.601562 3.722656 4.367188 3.761719 4.113281 C 3.640625 4.394531 3.667969 4.683594 3.765625 4.96875 C 3.660156 4.761719 3.578125 4.546875 3.589844 4.3125 C 3.597656 4.085938 3.691406 3.886719 3.800781 3.691406 C 3.859375 3.585938 3.921875 3.480469 3.984375 3.375 C 3.960938 3.542969 3.914062 3.8125 4.113281 3.902344 C 4.285156 3.980469 4.492188 3.871094 4.589844 3.722656 C 4.652344 3.628906 4.675781 3.519531 4.703125 3.410156 C 4.6875 3.699219 4.617188 4.121094 4.238281 4.09375 C 4.164062 4.085938 4.089844 4.0625 4.019531 4.039062 C 4.171875 4.136719 4.335938 4.214844 4.515625 4.132812 C 4.691406 4.058594 4.800781 3.886719 4.835938 3.703125 C 4.878906 3.488281 4.832031 3.269531 4.8125 3.050781 C 4.789062 2.824219 4.808594 2.617188 4.917969 2.414062 C 5.023438 2.21875 5.144531 2.050781 5.226562 1.84375 C 5.253906 2.113281 5.230469 2.347656 5.167969 2.609375 C 5.128906 2.773438 5.066406 3.054688 5.285156 3.121094 C 5.496094 3.183594 5.640625 2.980469 5.691406 2.804688 C 5.746094 2.605469 5.765625 2.394531 5.804688 2.191406 C 5.835938 2.117188 5.839844 2.035156 5.855469 1.957031 C 5.890625 1.789062 5.964844 1.601562 5.941406 1.425781 C 6.035156 1.574219 6.089844 1.730469 6.078125 1.921875 C 6.066406 2.171875 5.972656 2.425781 6.019531 2.679688 C 6.058594 2.871094 6.210938 2.996094 6.414062 2.953125 C 6.597656 2.914062 6.707031 2.808594 6.761719 2.675781 C 6.84375 2.472656 6.792969 2.164062 6.792969 2.164062 C 6.792969 2.164062 6.78125 2.703125 6.441406 2.828125 C 6.347656 2.863281 6.25 2.839844 6.203125 2.761719 C 6.382812 2.78125 6.457031 2.714844 6.542969 2.613281 C 6.632812 2.515625 6.667969 2.371094 6.699219 2.246094 C 6.773438 1.957031 6.824219 1.613281 6.742188 1.320312 C 6.710938 1.199219 6.636719 1.101562 6.554688 1.007812 C 6.585938 1.035156 6.625 1.054688 6.65625 1.085938 C 6.792969 1.207031 6.957031 1.328125 7.007812 1.511719 C 7.066406 1.730469 7.003906 1.960938 6.984375 2.179688 C 6.96875 2.335938 6.949219 2.59375 7.132812 2.664062 C 7.371094 2.757812 7.546875 2.488281 7.589844 2.289062 C 7.605469 2.214844 7.605469 2.128906 7.59375 2.054688 C 7.589844 2.039062 7.578125 1.976562 7.558594 1.917969 C 7.582031 1.949219 7.613281 1.984375 7.640625 2.015625 C 7.738281 2.117188 7.839844 2.21875 7.894531 2.351562 C 7.953125 2.496094 7.910156 2.632812 7.890625 2.78125 C 7.882812 2.855469 7.902344 2.953125 7.984375 2.980469 C 8.070312 3.011719 8.191406 2.925781 8.238281 2.855469 C 8.253906 2.828125 8.269531 2.789062 8.28125 2.753906 C 8.328125 3.050781 8.355469 3.382812 8.148438 3.621094 C 7.914062 3.890625 7.503906 3.914062 7.195312 4.042969 C 6.996094 4.125 6.824219 4.242188 6.652344 4.367188 C 6.792969 4.152344 7.011719 4.011719 7.25 3.917969 C 7.484375 3.824219 7.742188 3.78125 7.953125 3.636719 C 8.058594 3.5625 8.121094 3.480469 8.140625 3.351562 C 8.042969 3.605469 7.746094 3.648438 7.507812 3.707031 C 7.152344 3.789062 6.816406 3.941406 6.578125 4.222656 C 6.511719 4.304688 6.484375 4.390625 6.457031 4.488281 C 6.433594 4.585938 6.386719 4.660156 6.3125 4.730469 C 6.339844 4.703125 6.316406 4.550781 6.3125 4.511719 C 6.308594 4.5 6.304688 4.484375 6.304688 4.464844 C 6.300781 4.449219 6.300781 4.433594 6.300781 4.421875 C 6.300781 4.332031 6.304688 4.234375 6.34375 4.148438 C 6.347656 4.144531 6.300781 4.183594 6.292969 4.207031 C 6.183594 4.3125 6.117188 4.472656 6.03125 4.59375 C 5.976562 4.671875 5.941406 4.757812 5.882812 4.832031 C 5.847656 4.871094 5.816406 4.914062 5.78125 4.953125 C 5.785156 4.925781 5.785156 4.890625 5.789062 4.878906 C 5.796875 4.832031 5.800781 4.789062 5.8125 4.746094 C 5.824219 4.710938 5.835938 4.667969 5.851562 4.632812 C 5.859375 4.617188 5.914062 4.535156 5.90625 4.523438 C 5.914062 4.507812 5.921875 4.492188 5.921875 4.476562 C 5.921875 4.503906 5.769531 4.566406 5.742188 4.582031 C 5.683594 4.617188 5.628906 4.660156 5.582031 4.707031 C 5.484375 4.808594 5.40625 4.929688 5.332031 5.046875 C 5.238281 5.207031 5.140625 5.363281 5.050781 5.527344 C 4.859375 5.796875 4.535156 6.117188 4.191406 5.976562 C 4.042969 5.914062 3.980469 5.769531 3.925781 5.628906 C 3.894531 5.796875 3.949219 5.953125 4.089844 6.058594 C 4.234375 6.160156 4.398438 6.144531 4.5625 6.109375 C 4.355469 6.199219 4.128906 6.253906 3.964844 6.054688 C 3.863281 5.933594 3.785156 5.738281 3.8125 5.578125 Z M 5.121094 6.21875 C 5.058594 6.210938 4.992188 6.210938 4.929688 6.207031 C 4.847656 6.203125 4.765625 6.199219 4.6875 6.191406 C 4.769531 6.132812 4.84375 6.058594 4.910156 5.976562 C 4.914062 5.984375 4.921875 5.996094 4.925781 6.007812 C 4.96875 6.09375 5.046875 6.160156 5.121094 6.21875 Z M 3.632812 7.140625 C 3.753906 6.636719 3.957031 6.347656 4.027344 6.273438 C 4.164062 6.347656 4.300781 6.355469 4.46875 6.300781 C 4.507812 6.316406 4.554688 6.324219 4.597656 6.332031 C 4.683594 6.347656 4.777344 6.347656 4.863281 6.335938 C 4.964844 6.324219 5.058594 6.328125 5.15625 6.328125 C 5.242188 6.328125 5.3125 6.347656 5.386719 6.367188 C 5.347656 6.355469 5.304688 6.378906 5.265625 6.382812 C 5.164062 6.394531 5.066406 6.402344 4.96875 6.429688 C 4.570312 6.539062 3.945312 6.71875 3.632812 7.140625 Z M 4.335938 6.902344 C 4.140625 6.941406 3.949219 7.007812 3.785156 7.101562 C 3.769531 7.113281 3.75 7.121094 3.734375 7.132812 C 3.917969 6.945312 4.179688 6.828125 4.425781 6.757812 C 4.71875 6.667969 5 6.550781 5.304688 6.484375 C 5.453125 6.453125 5.613281 6.445312 5.769531 6.449219 C 5.929688 6.453125 6.082031 6.46875 6.238281 6.433594 C 6.347656 6.40625 6.453125 6.351562 6.546875 6.292969 C 6.554688 6.285156 6.566406 6.28125 6.578125 6.273438 C 6.511719 6.359375 6.457031 6.457031 6.414062 6.558594 C 6.351562 6.714844 6.316406 6.882812 6.332031 7.042969 C 6.210938 6.855469 6.039062 6.699219 5.824219 6.605469 C 5.652344 6.527344 5.460938 6.507812 5.28125 6.574219 C 5.117188 6.632812 5.074219 6.816406 5.0625 6.882812 C 4.992188 6.859375 4.910156 6.855469 4.847656 6.855469 C 4.683594 6.855469 4.507812 6.871094 4.335938 6.902344 Z M 6.769531 6.460938 C 6.773438 6.542969 6.789062 6.628906 6.804688 6.710938 C 6.820312 6.800781 6.875 6.992188 6.882812 6.980469 C 6.914062 6.914062 6.929688 6.847656 6.9375 6.777344 C 6.960938 6.882812 6.984375 6.984375 6.972656 7.097656 C 6.953125 7.253906 6.851562 7.414062 6.671875 7.34375 C 6.539062 7.292969 6.484375 7.132812 6.472656 7.003906 C 6.464844 6.871094 6.503906 6.738281 6.550781 6.617188 C 6.621094 6.433594 6.71875 6.265625 6.84375 6.125 C 6.792969 6.226562 6.765625 6.339844 6.769531 6.460938 Z M 4.660156 8.910156 C 4.527344 8.835938 4.46875 8.734375 4.421875 8.617188 C 4.3125 8.363281 4.304688 8.085938 4.421875 7.839844 C 4.425781 7.835938 4.421875 7.835938 4.421875 7.835938 C 4.246094 8.085938 4.191406 8.460938 4.316406 8.742188 C 4.320312 8.75 4.324219 8.757812 4.328125 8.765625 C 4.199219 8.613281 4.140625 8.402344 4.152344 8.210938 C 4.175781 7.902344 4.386719 7.703125 4.582031 7.484375 C 4.695312 7.363281 4.816406 7.199219 4.898438 6.988281 C 4.929688 6.988281 4.898438 6.988281 4.929688 6.992188 C 4.972656 7 5.011719 7.011719 5.050781 7.027344 C 5.03125 7.183594 4.984375 7.332031 4.910156 7.476562 C 4.828125 7.636719 4.734375 7.789062 4.683594 7.960938 C 4.632812 8.132812 4.625 8.3125 4.664062 8.488281 C 4.703125 8.640625 4.859375 8.839844 4.96875 8.945312 C 4.90625 8.957031 4.753906 8.960938 4.660156 8.910156 Z M 5.320312 8.929688 C 5.285156 8.921875 5.253906 8.910156 5.222656 8.902344 C 5.175781 8.886719 5.128906 8.867188 5.089844 8.84375 C 4.929688 8.75 4.824219 8.5625 4.789062 8.386719 C 4.757812 8.230469 4.777344 8.070312 4.828125 7.921875 C 4.878906 7.769531 4.972656 7.640625 5.039062 7.496094 C 5.074219 7.425781 5.105469 7.351562 5.128906 7.277344 C 5.144531 7.222656 5.15625 7.164062 5.164062 7.105469 C 5.167969 7.078125 5.171875 7.046875 5.171875 7.019531 C 5.175781 6.945312 5.144531 6.84375 5.179688 6.777344 C 5.183594 6.769531 5.191406 6.761719 5.195312 6.753906 C 5.242188 6.683594 5.359375 6.664062 5.4375 6.652344 C 5.601562 6.636719 5.773438 6.707031 5.90625 6.792969 C 6.175781 6.96875 6.339844 7.265625 6.402344 7.574219 C 6.460938 7.878906 6.4375 8.199219 6.34375 8.492188 C 6.300781 8.636719 6.246094 8.796875 6.117188 8.886719 C 6.078125 8.910156 6.039062 8.933594 6 8.953125 C 5.925781 8.980469 5.851562 9.003906 5.769531 9.019531 C 5.761719 9.023438 5.75 9.023438 5.738281 9.027344 C 5.738281 9.027344 5.734375 9.027344 5.734375 9.027344 C 5.738281 9.023438 5.746094 9.019531 5.75 9.015625 C 5.886719 8.9375 5.976562 8.796875 6.039062 8.65625 C 6.117188 8.480469 6.085938 8.261719 6.070312 8.078125 C 6.070312 8.070312 6.035156 8.421875 5.945312 8.574219 C 5.875 8.683594 5.804688 8.789062 5.703125 8.871094 C 5.59375 8.953125 5.449219 8.957031 5.320312 8.929688 Z M 4.902344 10.855469 C 4.929688 10.632812 4.984375 10.414062 5.058594 10.199219 C 5.074219 10.15625 5.09375 10.113281 5.109375 10.070312 C 5.113281 10.066406 5.117188 10.0625 5.121094 10.058594 C 5.128906 10.050781 5.128906 10.042969 5.125 10.035156 C 5.160156 9.945312 5.199219 9.859375 5.238281 9.773438 C 5.21875 9.90625 5.25 10.191406 5.253906 10.175781 C 5.289062 10.039062 5.316406 9.910156 5.371094 9.78125 C 5.417969 9.667969 5.480469 9.5625 5.539062 9.453125 C 5.617188 9.3125 5.714844 9.132812 5.878906 9.082031 C 6.0625 9.027344 6.246094 8.9375 6.371094 8.785156 C 6.40625 8.746094 6.4375 8.699219 6.460938 8.648438 C 6.621094 8.320312 6.554688 7.902344 6.515625 7.554688 C 6.507812 7.503906 6.503906 7.453125 6.496094 7.398438 C 6.628906 7.492188 6.765625 7.550781 6.917969 7.464844 C 7.082031 7.371094 7.152344 7.191406 7.125 7.011719 C 7.097656 6.808594 6.996094 6.628906 6.988281 6.421875 C 6.984375 6.324219 6.992188 6.230469 7.007812 6.132812 C 7.011719 6.097656 7.039062 6.003906 7.003906 5.972656 C 6.96875 5.9375 6.890625 5.980469 6.855469 5.996094 C 6.757812 6.039062 6.660156 6.089844 6.5625 6.136719 C 6.375 6.226562 6.179688 6.300781 5.96875 6.308594 C 5.671875 6.316406 5.054688 6.246094 5.074219 5.835938 C 5.085938 5.636719 5.21875 5.453125 5.328125 5.292969 C 5.445312 5.125 5.5625 4.960938 5.671875 4.789062 C 5.6875 4.765625 5.703125 4.738281 5.71875 4.714844 C 5.722656 4.710938 5.726562 4.710938 5.730469 4.707031 C 5.695312 4.78125 5.675781 4.863281 5.660156 4.945312 C 5.65625 4.980469 5.65625 5.171875 5.65625 5.171875 C 5.65625 5.171875 5.839844 5.03125 5.867188 5.007812 C 5.941406 4.941406 6.019531 4.878906 6.078125 4.796875 C 6.148438 4.703125 6.1875 4.597656 6.222656 4.484375 C 6.214844 4.582031 6.207031 4.683594 6.183594 4.777344 C 6.160156 4.871094 6.109375 4.945312 6.078125 5.03125 C 6.167969 4.996094 6.21875 4.910156 6.292969 4.851562 C 6.375 4.789062 6.464844 4.734375 6.558594 4.6875 C 6.75 4.589844 6.972656 4.53125 7.1875 4.527344 C 7.085938 4.554688 6.957031 4.570312 6.863281 4.628906 C 6.789062 4.675781 6.746094 4.753906 6.660156 4.796875 C 6.644531 4.804688 6.550781 4.851562 6.550781 4.851562 C 6.550781 4.851562 6.605469 4.882812 6.625 4.890625 C 6.816406 4.941406 7.015625 5.007812 7.179688 5.128906 C 7.265625 5.195312 7.3125 5.296875 7.390625 5.375 C 7.46875 5.457031 7.574219 5.503906 7.667969 5.570312 C 7.773438 5.636719 7.867188 5.71875 7.964844 5.792969 C 8.160156 5.949219 8.355469 6.113281 8.535156 6.285156 C 8.894531 6.625 9.1875 7.039062 9.445312 7.457031 C 9.445312 7.457031 9.445312 7.453125 9.445312 7.453125 C 9.253906 7.210938 9.050781 6.988281 8.820312 6.785156 C 8.710938 6.6875 8.605469 6.59375 8.472656 6.527344 C 8.40625 6.492188 8.144531 6.375 8.148438 6.378906 C 8.199219 6.429688 8.257812 6.460938 8.308594 6.507812 C 8.359375 6.558594 8.417969 6.601562 8.472656 6.652344 C 8.574219 6.746094 8.675781 6.847656 8.78125 6.945312 C 9 7.140625 9.1875 7.363281 9.367188 7.597656 C 9.621094 7.929688 9.835938 8.273438 9.996094 8.664062 C 10.132812 8.996094 10.273438 9.335938 10.359375 9.691406 C 10.421875 9.945312 10.511719 10.199219 10.539062 10.460938 C 10.539062 10.476562 10.566406 9.976562 10.519531 9.738281 C 10.625 9.957031 10.738281 10.171875 10.851562 10.386719 C 11.074219 10.808594 11.292969 11.238281 11.484375 11.675781 C 11.675781 12.109375 11.851562 12.550781 12.023438 12.992188 C 12.105469 13.203125 12.1875 13.417969 12.296875 13.617188 C 12.335938 13.683594 12.382812 13.75 12.433594 13.8125 C 12.394531 13.78125 12.355469 13.75 12.316406 13.722656 C 12.242188 13.664062 12.171875 13.601562 12.09375 13.550781 C 12.007812 13.496094 11.917969 13.464844 11.824219 13.425781 C 11.65625 13.351562 11.488281 13.28125 11.320312 13.21875 C 11.175781 13.164062 10.421875 12.980469 10.433594 12.988281 C 10.636719 13.175781 10.941406 13.234375 11.195312 13.328125 C 11.285156 13.359375 11.375 13.394531 11.464844 13.433594 C 11.363281 13.410156 11.265625 13.390625 11.167969 13.367188 C 11.050781 13.339844 10.933594 13.3125 10.820312 13.269531 C 10.753906 13.242188 10.5625 13.15625 10.5625 13.15625 C 10.5625 13.15625 10.730469 13.699219 10.753906 13.941406 C 10.761719 14.03125 10.765625 14.125 10.792969 14.214844 C 10.753906 14.179688 10.714844 14.148438 10.675781 14.117188 C 10.507812 13.976562 10.320312 13.851562 10.140625 13.722656 C 9.972656 13.601562 9.816406 13.464844 9.648438 13.339844 C 9.578125 13.289062 9.417969 13.066406 9.417969 13.066406 C 9.410156 13.066406 9.433594 13.402344 9.417969 13.570312 C 9.398438 13.742188 9.394531 13.910156 9.40625 14.078125 C 9.417969 14.234375 9.445312 14.40625 9.527344 14.542969 C 9.53125 14.546875 9.53125 14.550781 9.535156 14.558594 C 9.464844 14.496094 9.371094 14.464844 9.296875 14.414062 C 9.144531 14.304688 9 14.15625 8.878906 14.015625 C 8.722656 13.832031 8.601562 13.625 8.507812 13.402344 C 8.296875 12.90625 8.226562 12.625 8.226562 12.625 C 8.226562 12.625 8.273438 13.230469 8.382812 13.484375 C 8.425781 13.585938 8.472656 13.679688 8.527344 13.773438 C 8.363281 13.582031 8.21875 13.371094 8.132812 13.128906 C 8.042969 12.863281 8.035156 12.574219 7.980469 12.300781 C 7.976562 12.285156 7.707031 12.742188 7.664062 13.257812 C 7.648438 13.410156 7.664062 13.554688 7.703125 13.699219 C 7.714844 13.734375 7.726562 13.769531 7.742188 13.804688 C 7.664062 13.691406 7.582031 13.585938 7.5 13.476562 C 7.421875 13.347656 7.355469 13.210938 7.304688 13.070312 C 7.1875 12.773438 7.140625 12.460938 7.070312 12.152344 C 7.070312 12.144531 7.019531 12.488281 7.042969 12.652344 C 7 12.515625 6.976562 12.371094 6.972656 12.226562 C 6.96875 11.988281 7.007812 11.503906 7 11.503906 C 7 11.5 7 11.496094 7 11.492188 C 6.996094 11.484375 6.789062 11.707031 6.703125 11.832031 C 6.699219 11.777344 6.6875 11.726562 6.679688 11.675781 C 6.644531 11.480469 6.625 11.089844 6.621094 11.097656 C 6.617188 11.097656 6.617188 11.101562 6.613281 11.105469 C 6.609375 11.101562 6.453125 11.3125 6.375 11.414062 C 6.292969 11.527344 6.183594 11.625 6.085938 11.726562 C 6.054688 11.761719 6.019531 11.796875 5.988281 11.835938 C 6.003906 11.699219 6.015625 11.558594 6.054688 11.425781 C 6.085938 11.308594 6.09375 11.1875 6.128906 11.074219 C 6.160156 10.960938 6.191406 10.839844 6.199219 10.722656 C 6.199219 10.710938 6.089844 10.953125 6.035156 11.070312 C 5.984375 11.183594 5.9375 11.296875 5.90625 11.417969 C 5.902344 11.425781 5.902344 11.433594 5.898438 11.441406 C 5.90625 11.347656 5.914062 11.253906 5.929688 11.160156 C 5.957031 10.96875 6.003906 10.785156 6.078125 10.605469 C 6.136719 10.453125 6.207031 10.289062 6.300781 10.152344 C 6.316406 10.136719 6.328125 10.125 6.34375 10.109375 C 6.347656 10.101562 5.859375 10.261719 5.332031 10.609375 C 5.117188 10.75 4.960938 10.945312 4.875 11.175781 C 4.878906 11.070312 4.890625 10.960938 4.902344 10.855469 Z M 11.191406 23.867188 C 11.183594 23.902344 11.171875 23.941406 11.164062 23.976562 C 11.136719 24.082031 11.113281 24.199219 11.09375 24.324219 C 11.0625 24.527344 11.039062 24.753906 11.027344 25.011719 C 11.023438 25.140625 11.023438 25.253906 11.023438 25.359375 L 11.023438 25.382812 C 11.023438 25.398438 11.027344 25.410156 11.027344 25.425781 L 11.027344 25.453125 L 11 25.441406 C 10.976562 25.433594 10.953125 25.429688 10.933594 25.429688 C 10.894531 25.429688 10.859375 25.445312 10.828125 25.480469 L 10.832031 25.484375 C 10.847656 25.519531 10.859375 25.539062 10.890625 25.558594 C 10.910156 25.570312 10.929688 25.578125 10.949219 25.585938 C 10.972656 25.59375 10.992188 25.605469 11.015625 25.617188 C 11.097656 25.671875 11.160156 25.757812 11.203125 25.828125 C 11.234375 25.882812 11.261719 25.9375 11.289062 26 L 11.308594 26.050781 L 11.261719 26.023438 C 11.1875 25.980469 11.070312 25.9375 10.976562 25.9375 C 10.90625 25.9375 10.855469 25.960938 10.828125 26.011719 C 10.820312 26.023438 10.828125 26.035156 10.835938 26.042969 C 10.851562 26.054688 10.871094 26.0625 10.898438 26.070312 L 10.917969 26.074219 L 10.914062 26.09375 C 10.871094 26.222656 10.871094 26.402344 10.964844 26.507812 L 10.96875 26.511719 C 10.980469 26.539062 10.996094 26.5625 11.015625 26.585938 C 11.125 26.71875 11.296875 26.757812 11.464844 26.78125 C 11.539062 26.792969 11.617188 26.800781 11.695312 26.808594 C 11.835938 26.820312 11.984375 26.832031 12.125 26.875 C 12.28125 26.921875 12.402344 27.007812 12.484375 27.140625 L 12.460938 27.167969 C 12.4375 27.152344 12.40625 27.144531 12.375 27.144531 C 12.355469 27.144531 12.335938 27.148438 12.3125 27.152344 C 12.285156 27.160156 12.257812 27.167969 12.230469 27.175781 C 12.160156 27.195312 12.09375 27.214844 12.015625 27.21875 C 12.007812 27.21875 12.003906 27.21875 12 27.21875 C 11.90625 27.21875 11.820312 27.191406 11.730469 27.132812 C 11.683594 27.105469 11.644531 27.0625 11.613281 27.015625 C 11.601562 26.988281 11.582031 26.972656 11.554688 26.964844 C 11.566406 26.957031 11.578125 26.953125 11.585938 26.941406 C 11.539062 26.894531 11.382812 26.882812 11.316406 26.875 C 11.21875 26.867188 11.125 26.847656 11.03125 26.816406 C 10.953125 26.789062 10.871094 26.753906 10.804688 26.707031 C 10.734375 26.65625 10.683594 26.585938 10.625 26.523438 C 10.625 26.519531 10.621094 26.523438 10.625 26.523438 C 10.667969 26.613281 10.703125 26.707031 10.753906 26.792969 C 10.785156 26.847656 10.820312 26.886719 10.863281 26.921875 C 10.839844 26.910156 10.8125 26.902344 10.789062 26.890625 C 10.714844 26.859375 10.636719 26.832031 10.566406 26.832031 C 10.523438 26.832031 10.488281 26.839844 10.453125 26.859375 C 10.460938 26.824219 10.46875 26.792969 10.488281 26.757812 C 10.492188 26.75 10.480469 26.734375 10.46875 26.742188 C 10.328125 26.835938 10.21875 26.964844 10.082031 27.0625 C 10.003906 27.117188 9.917969 27.164062 9.828125 27.199219 C 9.773438 27.222656 9.714844 27.242188 9.652344 27.246094 C 9.613281 27.253906 9.578125 27.246094 9.542969 27.261719 C 9.539062 27.261719 9.539062 27.265625 9.542969 27.265625 C 9.613281 27.300781 9.6875 27.316406 9.761719 27.320312 C 9.714844 27.351562 9.667969 27.390625 9.621094 27.433594 L 9.613281 27.4375 C 9.527344 27.515625 9.425781 27.605469 9.3125 27.652344 C 9.195312 27.699219 9.066406 27.726562 8.960938 27.726562 C 8.902344 27.726562 8.851562 27.71875 8.808594 27.707031 L 8.78125 27.699219 L 8.800781 27.675781 C 8.902344 27.558594 9.023438 27.425781 9.1875 27.332031 C 9.226562 27.3125 9.265625 27.292969 9.304688 27.273438 C 9.355469 27.246094 9.414062 27.214844 9.464844 27.183594 C 9.527344 27.144531 9.582031 27.09375 9.636719 27.046875 C 9.671875 27.015625 9.707031 26.980469 9.75 26.953125 C 9.816406 26.898438 9.894531 26.851562 9.964844 26.804688 C 10.046875 26.75 10.132812 26.691406 10.214844 26.628906 L 10.214844 26.625 C 10.296875 26.585938 10.367188 26.519531 10.433594 26.457031 C 10.558594 26.332031 10.660156 26.039062 10.703125 25.902344 C 10.652344 25.960938 10.601562 26.023438 10.554688 26.085938 C 10.492188 26.164062 10.429688 26.246094 10.359375 26.320312 C 10.304688 26.378906 10.242188 26.4375 10.175781 26.488281 C 10.167969 26.492188 10.160156 26.5 10.152344 26.507812 L 10.148438 26.511719 L 10.132812 26.515625 C 10.105469 26.519531 10.078125 26.527344 10.050781 26.535156 C 10.015625 26.542969 9.976562 26.554688 9.9375 26.558594 L 9.910156 26.5625 C 9.851562 26.570312 9.796875 26.578125 9.742188 26.59375 C 9.738281 26.597656 9.734375 26.597656 9.730469 26.601562 C 9.75 26.5625 9.761719 26.519531 9.761719 26.472656 C 9.761719 26.457031 9.601562 26.535156 9.535156 26.570312 C 9.460938 26.609375 9.386719 26.644531 9.308594 26.667969 C 9.230469 26.695312 9.152344 26.699219 9.070312 26.703125 C 9.015625 26.707031 8.964844 26.707031 8.910156 26.703125 C 8.855469 26.703125 8.804688 26.667969 8.753906 26.652344 C 8.742188 26.648438 8.738281 26.667969 8.746094 26.675781 C 8.796875 26.710938 8.828125 26.757812 8.867188 26.800781 C 8.820312 26.804688 8.773438 26.808594 8.722656 26.816406 C 8.621094 26.832031 8.523438 26.875 8.410156 26.945312 C 8.292969 27.019531 8.175781 27.089844 8.023438 27.132812 C 8.019531 27.132812 8.011719 27.132812 8.007812 27.132812 C 8.234375 27.003906 8.332031 26.8125 8.320312 26.820312 C 8.183594 26.910156 8.039062 26.992188 7.878906 27.046875 C 7.800781 27.074219 7.71875 27.089844 7.640625 27.113281 C 7.585938 27.125 7.527344 27.140625 7.46875 27.144531 C 7.449219 27.140625 7.429688 27.132812 7.410156 27.128906 C 7.347656 27.109375 7.28125 27.089844 7.21875 27.089844 L 7.1875 27.085938 L 7.203125 27.0625 C 7.207031 27.050781 7.210938 27.039062 7.21875 27.027344 C 7.230469 26.996094 7.246094 26.964844 7.265625 26.9375 C 7.308594 26.871094 7.375 26.828125 7.4375 26.796875 C 7.589844 26.714844 7.773438 26.6875 7.917969 26.664062 C 7.976562 26.652344 8.03125 26.644531 8.085938 26.636719 C 8.179688 26.625 8.273438 26.613281 8.363281 26.59375 C 8.484375 26.566406 8.609375 26.523438 8.726562 26.480469 C 8.851562 26.4375 8.980469 26.390625 9.117188 26.363281 C 9.195312 26.347656 9.273438 26.339844 9.351562 26.332031 C 9.402344 26.328125 9.457031 26.324219 9.507812 26.316406 C 9.621094 26.300781 9.734375 26.269531 9.871094 26.210938 C 10.078125 26.125 10.257812 26.015625 10.402344 25.886719 C 10.5625 25.75 10.675781 25.570312 10.71875 25.386719 C 10.742188 25.269531 10.738281 25.148438 10.730469 25.042969 C 10.726562 24.988281 10.71875 24.9375 10.714844 24.886719 C 10.707031 24.792969 10.699219 24.699219 10.691406 24.601562 C 10.679688 24.425781 10.609375 24.058594 10.609375 24.058594 C 10.609375 24.058594 10.695312 23.519531 10.71875 23.339844 L 10.722656 23.308594 C 10.722656 23.308594 10.800781 23.425781 10.824219 23.484375 C 10.832031 23.507812 10.84375 23.527344 10.851562 23.550781 C 10.878906 23.621094 10.90625 23.699219 10.941406 23.769531 C 10.953125 23.796875 10.96875 23.820312 10.984375 23.847656 C 10.996094 23.863281 11.007812 23.882812 11.015625 23.902344 C 11.03125 23.878906 11.046875 23.84375 11.066406 23.8125 C 11.117188 23.722656 11.1875 23.597656 11.234375 23.535156 L 11.25 23.523438 C 11.25 23.523438 11.210938 23.789062 11.191406 23.867188 Z M 12.777344 21.785156 C 12.480469 22.261719 12.160156 22.5625 11.691406 22.855469 C 11.566406 22.933594 11.460938 23.03125 11.355469 23.132812 C 11.304688 23.183594 11.253906 23.242188 11.207031 23.304688 C 11.214844 23.277344 11.226562 23.246094 11.230469 23.21875 C 11.261719 23.113281 11.292969 23.003906 11.351562 22.914062 C 11.390625 22.851562 11.449219 22.710938 11.449219 22.714844 C 11.394531 22.796875 11.320312 22.851562 11.257812 22.925781 C 11.230469 22.960938 11.191406 22.988281 11.164062 23.023438 C 11.128906 23.074219 11.097656 23.128906 11.070312 23.183594 C 11.046875 23.230469 10.996094 23.339844 10.964844 23.449219 C 10.960938 23.4375 10.953125 23.425781 10.949219 23.414062 C 10.90625 23.308594 10.585938 22.910156 10.589844 22.925781 C 10.589844 22.957031 10.574219 23.078125 10.566406 23.128906 C 10.539062 23.011719 10.496094 22.898438 10.453125 22.785156 C 10.398438 22.644531 10.324219 22.519531 10.242188 22.398438 C 10.152344 22.261719 10.070312 22.125 9.992188 21.984375 C 9.992188 21.984375 9.988281 21.984375 9.988281 21.988281 C 10.035156 22.125 10.101562 22.265625 10.132812 22.410156 C 10.160156 22.554688 10.222656 22.699219 10.277344 22.835938 C 10.320312 22.945312 10.359375 23.0625 10.386719 23.179688 C 10.367188 23.144531 10.351562 23.113281 10.332031 23.082031 C 10.15625 22.746094 9.976562 22.40625 9.761719 22.09375 C 9.652344 21.933594 9.53125 21.785156 9.425781 21.625 C 9.316406 21.464844 9.214844 21.304688 9.109375 21.144531 C 9 20.984375 8.875 20.84375 8.742188 20.707031 C 8.902344 20.832031 9.058594 20.960938 9.207031 21.097656 C 9.371094 21.246094 9.542969 21.382812 9.710938 21.527344 C 9.875 21.667969 10.21875 21.960938 10.207031 21.949219 C 9.964844 21.59375 9.652344 21.273438 9.34375 20.976562 C 8.476562 20.140625 7.429688 19.515625 6.539062 18.707031 C 6.460938 18.640625 6.382812 18.570312 6.308594 18.5 C 5.949219 18.171875 5.601562 17.832031 5.28125 17.46875 C 5.144531 17.3125 5.015625 17.152344 4.890625 16.988281 C 4.816406 16.875 4.742188 16.761719 4.675781 16.648438 C 4.523438 16.390625 4.398438 16.113281 4.304688 15.828125 C 4.207031 15.53125 4.113281 15.132812 4.085938 14.820312 C 4.039062 14.25 4.105469 13.953125 4.105469 13.855469 C 4.105469 13.839844 4.007812 14.125 3.980469 14.34375 C 3.957031 14.511719 3.949219 14.6875 3.949219 14.859375 C 3.949219 15.015625 3.964844 15.167969 3.988281 15.324219 C 3.953125 15.207031 3.921875 15.085938 3.894531 14.964844 C 3.714844 14.152344 3.832031 13.292969 4.035156 12.496094 C 4.140625 12.0625 4.300781 11.652344 4.5 11.25 C 4.59375 11.0625 4.683594 10.871094 4.78125 10.683594 C 4.773438 10.722656 4.765625 10.765625 4.761719 10.804688 C 4.746094 10.90625 4.738281 11.011719 4.738281 11.117188 C 4.738281 11.238281 4.765625 11.347656 4.777344 11.46875 C 4.78125 11.5 5.023438 10.976562 5.457031 10.699219 C 5.601562 10.609375 5.75 10.523438 5.898438 10.441406 C 5.953125 10.410156 6.007812 10.375 6.058594 10.34375 C 6.019531 10.398438 5.984375 10.457031 5.953125 10.523438 C 5.871094 10.710938 5.820312 10.910156 5.789062 11.113281 C 5.753906 11.316406 5.742188 11.527344 5.738281 11.734375 C 5.734375 11.949219 5.835938 12.367188 5.839844 12.371094 C 5.835938 12.375 6.128906 11.894531 6.226562 11.792969 C 6.316406 11.695312 6.414062 11.605469 6.496094 11.503906 C 6.515625 11.476562 6.53125 11.449219 6.542969 11.421875 C 6.542969 11.472656 6.546875 11.523438 6.554688 11.574219 C 6.570312 11.734375 6.582031 11.890625 6.59375 12.050781 C 6.585938 12.082031 6.582031 12.113281 6.582031 12.144531 C 6.582031 12.15625 6.8125 11.898438 6.878906 11.824219 C 6.894531 11.808594 6.90625 11.792969 6.917969 11.777344 C 6.90625 11.808594 6.894531 11.84375 6.882812 11.878906 C 6.847656 11.988281 6.828125 12.09375 6.828125 12.207031 C 6.828125 12.457031 6.886719 12.691406 6.984375 12.917969 C 7.144531 13.277344 7.371094 13.609375 7.652344 13.886719 C 7.726562 13.957031 7.804688 14.027344 7.894531 14.085938 C 7.90625 14.09375 7.824219 13.828125 7.8125 13.703125 C 7.800781 13.550781 7.796875 13.398438 7.808594 13.246094 C 7.820312 13.097656 7.851562 12.949219 7.890625 12.804688 C 7.898438 12.777344 7.90625 12.746094 7.910156 12.71875 C 7.917969 12.855469 7.941406 12.992188 7.976562 13.125 C 8.058594 13.410156 8.234375 13.65625 8.421875 13.875 C 8.679688 14.175781 8.996094 14.421875 9.34375 14.613281 C 9.421875 14.65625 9.511719 14.6875 9.59375 14.722656 C 9.671875 14.753906 9.820312 14.835938 9.820312 14.835938 L 9.785156 14.777344 C 9.785156 14.777344 9.730469 14.683594 9.707031 14.636719 C 9.601562 14.449219 9.566406 14.238281 9.550781 14.027344 C 9.535156 13.792969 9.550781 13.550781 9.507812 13.320312 C 9.527344 13.355469 9.550781 13.386719 9.574219 13.417969 C 9.6875 13.585938 9.863281 13.703125 10.023438 13.820312 C 10.1875 13.9375 10.351562 14.050781 10.507812 14.171875 C 10.59375 14.242188 10.671875 14.320312 10.761719 14.382812 C 10.847656 14.445312 10.925781 14.488281 11 14.570312 C 11 14.574219 11.015625 14.589844 11.023438 14.597656 C 11.023438 14.597656 10.953125 14.339844 10.9375 14.246094 C 10.914062 14.109375 10.902344 13.964844 10.890625 13.824219 C 10.867188 13.628906 10.808594 13.433594 10.664062 13.285156 C 10.710938 13.320312 10.765625 13.324219 10.8125 13.355469 C 10.917969 13.421875 11.054688 13.441406 11.148438 13.53125 C 11.25 13.628906 11.277344 13.785156 11.339844 13.910156 C 11.457031 14.140625 11.542969 14.390625 11.605469 14.640625 C 11.675781 14.921875 11.726562 15.207031 11.78125 15.492188 C 11.785156 15.515625 11.789062 15.542969 11.792969 15.566406 C 11.769531 15.53125 11.746094 15.5 11.71875 15.464844 C 11.632812 15.363281 11.535156 15.269531 11.429688 15.183594 C 11.328125 15.101562 11.207031 15.039062 11.089844 14.976562 C 10.957031 14.90625 10.832031 14.820312 10.707031 14.738281 C 10.703125 14.738281 10.699219 14.738281 10.703125 14.742188 C 10.789062 14.835938 10.886719 14.914062 10.980469 15 C 11.078125 15.097656 11.175781 15.191406 11.277344 15.285156 C 11.335938 15.339844 11.390625 15.390625 11.445312 15.445312 C 11.4375 15.4375 11.429688 15.433594 11.417969 15.425781 C 11.25 15.320312 11.070312 15.21875 10.882812 15.144531 C 10.785156 15.105469 10.480469 14.949219 10.492188 14.960938 C 10.515625 15.007812 10.539062 15.054688 10.558594 15.101562 C 10.597656 15.179688 10.609375 15.273438 10.636719 15.355469 C 10.6875 15.507812 10.722656 15.660156 10.753906 15.820312 C 10.78125 15.964844 10.8125 16.113281 10.886719 16.246094 C 10.921875 16.304688 10.957031 16.371094 11.007812 16.421875 C 11.03125 16.441406 10.847656 16.296875 10.710938 16.246094 C 10.511719 16.167969 10.308594 16.101562 10.097656 16.074219 C 9.878906 16.050781 9.660156 16.039062 9.445312 15.992188 C 9.257812 15.953125 9.058594 15.921875 8.878906 15.84375 C 8.871094 15.839844 8.957031 16.027344 8.976562 16.113281 C 8.996094 16.191406 9.023438 16.269531 9.042969 16.347656 C 9.074219 16.457031 9.121094 16.554688 9.175781 16.652344 C 9.15625 16.617188 9.070312 16.578125 9.039062 16.558594 C 8.949219 16.492188 8.863281 16.410156 8.761719 16.355469 C 8.578125 16.261719 8.394531 16.167969 8.222656 16.054688 C 8.070312 15.953125 7.917969 15.851562 7.777344 15.734375 C 7.703125 15.671875 7.625 15.617188 7.550781 15.558594 C 7.472656 15.492188 7.320312 15.332031 7.324219 15.335938 C 7.371094 15.40625 7.421875 15.476562 7.476562 15.542969 C 7.535156 15.617188 7.582031 15.703125 7.644531 15.777344 C 7.757812 15.921875 7.902344 16.058594 8.054688 16.160156 C 8.074219 16.175781 8.097656 16.191406 8.121094 16.207031 C 7.96875 16.140625 7.820312 16.0625 7.675781 15.980469 C 7.585938 15.933594 7.496094 15.890625 7.414062 15.835938 C 7.328125 15.78125 7.234375 15.671875 7.15625 15.5625 C 7.15625 15.558594 7.085938 15.871094 7.078125 16.027344 C 7.074219 16.097656 7.0625 16.308594 7.09375 16.398438 C 7.042969 16.304688 7.03125 16.238281 6.980469 16.144531 C 6.90625 16 6.820312 15.855469 6.761719 15.703125 C 6.734375 15.632812 6.710938 15.558594 6.683594 15.488281 C 6.65625 15.421875 6.625 15.359375 6.597656 15.296875 C 6.574219 15.234375 6.550781 15.167969 6.523438 15.105469 C 6.523438 15.101562 6.464844 15.238281 6.421875 15.304688 C 6.113281 15.792969 6.171875 16.3125 6.171875 16.3125 C 6.078125 16.160156 5.980469 15.875 5.945312 15.691406 C 5.828125 15.121094 5.882812 14.503906 6.007812 13.9375 C 6.058594 13.71875 6.144531 13.511719 6.199219 13.296875 C 6.199219 13.289062 5.964844 13.664062 5.863281 14.148438 C 5.875 13.941406 5.902344 13.734375 5.9375 13.53125 C 5.996094 13.191406 6.164062 12.875 6.335938 12.582031 C 6.339844 12.570312 5.992188 12.917969 5.832031 13.480469 C 5.722656 13.859375 5.679688 14.238281 5.671875 14.632812 C 5.664062 15.007812 5.679688 15.378906 5.769531 15.746094 C 5.890625 16.246094 6.207031 16.515625 6.292969 16.652344 C 6.289062 16.636719 6.261719 16.507812 6.261719 16.339844 C 6.300781 16.429688 6.347656 16.519531 6.390625 16.605469 C 6.484375 16.804688 6.578125 16.996094 6.703125 17.175781 C 6.867188 17.414062 7.03125 17.648438 7.210938 17.871094 C 7.277344 17.976562 7.359375 18.074219 7.453125 18.160156 C 7.453125 18.160156 7.453125 18.160156 7.457031 18.160156 C 7.472656 18.183594 7.492188 18.203125 7.507812 18.222656 C 7.652344 18.375 7.800781 18.523438 7.949219 18.675781 C 8.09375 18.824219 8.242188 18.96875 8.410156 19.09375 C 8.578125 19.222656 8.761719 19.324219 8.953125 19.398438 C 9.046875 19.4375 9.140625 19.429688 9.222656 19.484375 C 9.402344 19.597656 9.554688 19.757812 9.738281 19.871094 C 9.984375 20.027344 10.230469 20.1875 10.472656 20.351562 C 10.949219 20.679688 11.433594 20.996094 11.945312 21.265625 C 12.167969 21.382812 12.394531 21.492188 12.625 21.59375 C 12.605469 21.625 12.585938 21.65625 12.566406 21.679688 C 12.460938 21.796875 12.335938 21.894531 12.230469 22.003906 C 12.128906 22.109375 12.019531 22.195312 11.929688 22.3125 C 11.84375 22.425781 11.703125 22.695312 11.710938 22.683594 C 11.816406 22.539062 11.96875 22.441406 12.109375 22.339844 C 12.308594 22.195312 12.5 22.011719 12.671875 21.835938 C 12.710938 21.796875 12.742188 21.757812 12.769531 21.714844 C 12.78125 21.699219 12.792969 21.683594 12.800781 21.667969 C 12.816406 21.675781 12.832031 21.679688 12.84375 21.6875 C 12.8125 21.730469 12.789062 21.769531 12.777344 21.785156 Z M 11.285156 17.265625 C 11.273438 17.246094 11.265625 17.230469 11.253906 17.214844 C 11.277344 17.226562 11.300781 17.242188 11.324219 17.253906 C 11.449219 17.324219 11.640625 17.398438 11.792969 17.367188 C 11.828125 17.410156 11.867188 17.445312 11.90625 17.484375 C 11.972656 17.546875 12.035156 17.617188 12.101562 17.679688 C 12.246094 17.820312 12.394531 17.953125 12.539062 18.085938 C 12.820312 18.34375 13.09375 18.613281 13.351562 18.894531 C 13.597656 19.152344 13.824219 19.429688 14.007812 19.734375 C 14.109375 19.898438 14.207031 20.066406 14.285156 20.242188 C 14.042969 19.941406 13.734375 19.699219 13.425781 19.472656 C 13.074219 19.214844 12.714844 18.972656 12.351562 18.738281 C 12.167969 18.617188 11.984375 18.492188 11.8125 18.359375 C 11.671875 18.246094 11.53125 18.128906 11.378906 18.035156 C 11.515625 17.816406 11.394531 17.457031 11.285156 17.265625 Z M 14.199219 19.695312 C 14.019531 19.371094 13.773438 19.082031 13.527344 18.808594 C 13.253906 18.511719 12.96875 18.226562 12.667969 17.957031 C 12.515625 17.816406 12.363281 17.671875 12.207031 17.535156 C 12.128906 17.464844 12.03125 17.359375 11.921875 17.308594 C 11.929688 17.300781 11.9375 17.292969 11.949219 17.285156 C 12.039062 17.183594 12.023438 17.035156 12 16.914062 C 11.980469 16.769531 11.914062 16.632812 11.855469 16.5 C 11.914062 16.566406 11.976562 16.628906 12.058594 16.664062 C 12.152344 16.796875 12.304688 16.902344 12.417969 17.011719 C 12.449219 17.039062 12.476562 17.070312 12.507812 17.097656 C 12.539062 17.132812 12.566406 17.171875 12.597656 17.207031 C 12.621094 17.234375 12.644531 17.261719 12.667969 17.285156 C 12.707031 17.324219 12.742188 17.363281 12.78125 17.402344 C 13.0625 17.664062 13.367188 17.910156 13.621094 18.199219 C 13.851562 18.460938 14.015625 18.78125 14.140625 19.105469 C 14.207031 19.285156 14.246094 19.46875 14.28125 19.65625 C 14.296875 19.734375 14.300781 19.8125 14.300781 19.890625 C 14.269531 19.824219 14.234375 19.757812 14.199219 19.695312 Z M 12.9375 17.296875 C 12.804688 17.167969 12.675781 17.039062 12.546875 16.910156 C 12.460938 16.824219 12.371094 16.734375 12.265625 16.675781 C 12.367188 16.632812 12.417969 16.515625 12.398438 16.382812 C 12.394531 16.355469 12.390625 16.328125 12.382812 16.300781 C 12.449219 16.382812 12.519531 16.460938 12.59375 16.535156 C 12.753906 16.703125 12.925781 16.859375 13.070312 17.042969 C 13.199219 17.195312 13.292969 17.375 13.378906 17.554688 C 13.417969 17.640625 13.46875 17.726562 13.507812 17.8125 C 13.324219 17.636719 13.125 17.46875 12.9375 17.296875 Z M 12.726562 16.453125 C 12.632812 16.378906 12.535156 16.308594 12.441406 16.238281 C 12.40625 16.210938 12.371094 16.179688 12.335938 16.144531 C 12.292969 16.035156 12.234375 15.925781 12.179688 15.824219 C 12.113281 15.703125 12.039062 15.585938 11.960938 15.472656 C 11.957031 15.445312 11.953125 15.421875 11.949219 15.398438 C 11.941406 15.367188 11.9375 15.335938 11.929688 15.308594 C 11.933594 15.3125 11.9375 15.3125 11.9375 15.316406 C 11.996094 15.417969 12.101562 15.5 12.183594 15.578125 C 12.351562 15.730469 12.535156 15.867188 12.6875 16.039062 C 12.886719 16.269531 12.996094 16.546875 13.121094 16.820312 C 13 16.6875 12.863281 16.566406 12.726562 16.453125 Z M 12.050781 16.253906 C 12.0625 16.121094 12.054688 15.992188 12.035156 15.859375 C 12.058594 16.015625 12.222656 16.144531 12.214844 16.3125 C 12.210938 16.433594 12.140625 16.523438 12.019531 16.460938 C 11.851562 16.375 11.691406 16.238281 11.566406 16.101562 C 11.453125 15.972656 11.1875 15.738281 11.191406 15.742188 C 11.425781 16.046875 11.621094 16.386719 11.761719 16.742188 C 11.789062 16.820312 11.851562 16.96875 11.808594 17.046875 C 11.734375 17.179688 11.542969 17.035156 11.464844 16.980469 C 11.332031 16.882812 11.214844 16.769531 11.113281 16.640625 C 11.105469 16.632812 11.261719 16.988281 11.390625 17.121094 C 11.1875 17.027344 10.980469 16.894531 10.929688 16.851562 C 10.777344 16.734375 10.457031 16.507812 10.464844 16.515625 C 10.644531 16.765625 10.875 16.96875 11.050781 17.222656 C 11.132812 17.34375 11.195312 17.476562 11.230469 17.621094 C 11.253906 17.726562 11.269531 17.878906 11.195312 17.96875 C 10.988281 18.21875 10.554688 17.738281 10.4375 17.59375 C 10.289062 17.40625 10.136719 17.226562 10.035156 17.007812 C 10.03125 17 10.160156 17.511719 10.320312 17.710938 C 10.332031 17.722656 10.339844 17.734375 10.351562 17.746094 C 10.203125 17.664062 10.058594 17.566406 9.929688 17.457031 C 9.75 17.296875 9.402344 16.957031 9.402344 16.957031 C 9.519531 17.109375 9.644531 17.253906 9.757812 17.40625 C 9.867188 17.5625 9.953125 17.726562 10.074219 17.871094 C 10.097656 17.898438 10.117188 17.921875 10.136719 17.949219 C 10.242188 18.101562 10.339844 18.261719 10.394531 18.445312 C 10.425781 18.550781 10.445312 18.695312 10.398438 18.804688 C 10.242188 19.171875 9.699219 18.554688 9.605469 18.414062 C 9.539062 18.3125 9.46875 18.210938 9.417969 18.097656 C 9.363281 17.984375 9.324219 17.859375 9.277344 17.738281 C 9.277344 17.734375 9.316406 18 9.347656 18.128906 C 9.375 18.257812 9.402344 18.382812 9.460938 18.5 C 9.472656 18.519531 9.484375 18.539062 9.496094 18.558594 C 9.347656 18.441406 9.269531 18.304688 9.167969 18.148438 C 8.949219 17.816406 8.722656 17.492188 8.570312 17.121094 C 8.566406 17.113281 8.601562 17.445312 8.773438 17.824219 C 8.558594 17.582031 8.351562 17.339844 8.128906 17.101562 C 7.925781 16.875 7.515625 16.417969 7.519531 16.421875 C 7.746094 16.710938 7.957031 17.011719 8.171875 17.308594 C 8.371094 17.589844 8.589844 17.847656 8.800781 18.121094 C 8.925781 18.277344 9.039062 18.445312 9.136719 18.621094 C 9.195312 18.722656 9.449219 19.109375 9.359375 19.226562 C 9.289062 19.316406 9.015625 19.230469 8.9375 19.195312 C 8.71875 19.097656 8.566406 18.917969 8.4375 18.71875 C 8.363281 18.605469 8.28125 18.492188 8.230469 18.367188 C 8.183594 18.253906 8.136719 18.1875 8.085938 18.035156 C 8.085938 18.035156 8.175781 18.507812 8.261719 18.726562 C 8.183594 18.652344 8.109375 18.574219 8.035156 18.5 C 8.003906 18.464844 7.972656 18.433594 7.941406 18.402344 C 7.875 18.28125 7.800781 18.160156 7.738281 18.039062 C 7.621094 17.8125 7.527344 17.589844 7.488281 17.335938 C 7.488281 17.328125 7.445312 17.644531 7.574219 18.023438 C 7.496094 17.933594 7.414062 17.839844 7.335938 17.75 C 7.296875 17.664062 7.257812 17.582031 7.226562 17.496094 C 7.183594 17.390625 7.136719 17.285156 7.105469 17.175781 C 7.070312 17.0625 7.035156 16.824219 7.035156 16.828125 C 7.011719 16.933594 7.015625 17.050781 7.019531 17.15625 C 7.023438 17.21875 7.027344 17.285156 7.03125 17.347656 C 6.914062 17.164062 6.8125 16.964844 6.691406 16.78125 C 6.527344 16.539062 6.378906 16.28125 6.316406 15.988281 C 6.328125 15.953125 6.339844 15.917969 6.355469 15.882812 C 6.410156 15.765625 6.464844 15.644531 6.511719 15.527344 C 6.542969 15.664062 6.597656 15.800781 6.664062 15.929688 C 6.785156 16.164062 6.941406 16.453125 7.199219 16.570312 C 7.199219 16.574219 7.210938 16.242188 7.214844 16.09375 C 7.222656 15.929688 7.210938 15.714844 7.210938 15.714844 C 7.210938 15.714844 7.269531 15.835938 7.308594 15.894531 C 7.363281 15.976562 7.453125 16.042969 7.53125 16.101562 C 7.695312 16.222656 7.890625 16.308594 8.078125 16.390625 C 8.265625 16.46875 8.464844 16.550781 8.664062 16.601562 C 8.855469 16.648438 9.320312 16.851562 9.324219 16.851562 C 9.335938 16.855469 9.304688 16.683594 9.257812 16.550781 C 9.230469 16.464844 9.203125 16.371094 9.183594 16.285156 C 9.167969 16.203125 9.144531 16.121094 9.101562 16.050781 C 9.167969 16.089844 9.234375 16.121094 9.308594 16.144531 C 9.511719 16.210938 9.722656 16.222656 9.933594 16.242188 C 10.15625 16.261719 10.367188 16.316406 10.578125 16.390625 C 10.769531 16.460938 10.96875 16.515625 11.15625 16.597656 C 11.171875 16.601562 11.058594 16.351562 11.027344 16.269531 C 10.972656 16.113281 10.957031 15.929688 10.929688 15.765625 C 10.902344 15.605469 10.871094 15.441406 10.800781 15.292969 C 10.796875 15.28125 10.789062 15.269531 10.785156 15.261719 C 10.921875 15.359375 11.078125 15.4375 11.222656 15.523438 C 11.375 15.609375 11.523438 15.710938 11.636719 15.84375 C 11.726562 15.949219 12.046875 16.273438 12.050781 16.253906 Z M 14.773438 21.691406 C 14.785156 21.761719 14.742188 21.816406 14.597656 21.835938 C 14.449219 21.851562 14.296875 21.824219 14.15625 21.789062 C 13.84375 21.707031 13.535156 21.605469 13.265625 21.425781 C 13.257812 21.417969 13.359375 21.621094 13.726562 21.796875 C 13.597656 21.757812 13.464844 21.714844 13.339844 21.671875 C 13.277344 21.652344 12.179688 21.1875 11.800781 20.976562 C 11.292969 20.695312 10.8125 20.359375 10.328125 20.03125 C 10.152344 19.910156 9.964844 19.800781 9.78125 19.683594 C 9.730469 19.640625 9.671875 19.605469 9.625 19.570312 C 9.578125 19.539062 9.539062 19.503906 9.492188 19.46875 C 9.464844 19.449219 9.425781 19.425781 9.398438 19.394531 C 9.417969 19.386719 9.441406 19.375 9.460938 19.363281 C 9.472656 19.359375 9.480469 19.351562 9.488281 19.34375 C 9.527344 19.375 9.578125 19.398438 9.613281 19.417969 C 9.714844 19.472656 9.8125 19.539062 9.914062 19.597656 C 10.195312 19.761719 10.46875 19.933594 10.738281 20.121094 C 11.003906 20.308594 11.273438 20.488281 11.550781 20.660156 C 11.8125 20.820312 12.101562 20.96875 12.390625 21.0625 C 12.40625 21.066406 12.410156 21.050781 12.402344 21.042969 C 12.273438 20.960938 12.140625 20.890625 12.015625 20.804688 C 11.894531 20.722656 11.773438 20.636719 11.65625 20.546875 C 11.398438 20.351562 11.128906 20.167969 10.859375 19.984375 C 10.609375 19.808594 10.359375 19.640625 10.09375 19.488281 C 9.988281 19.425781 9.882812 19.355469 9.773438 19.296875 C 9.730469 19.273438 9.691406 19.253906 9.652344 19.230469 C 9.636719 19.222656 9.617188 19.214844 9.601562 19.207031 C 9.574219 19.195312 9.5625 19.171875 9.59375 19.214844 C 9.585938 19.199219 9.574219 19.191406 9.5625 19.183594 C 9.566406 19.023438 9.457031 18.824219 9.40625 18.710938 C 9.402344 18.699219 9.394531 18.683594 9.390625 18.671875 C 9.46875 18.734375 9.546875 18.792969 9.628906 18.847656 C 9.792969 18.960938 9.972656 19.058594 10.171875 19.085938 C 10.386719 19.113281 10.53125 18.972656 10.59375 18.800781 C 10.75 18.914062 10.902344 19.039062 11.058594 19.15625 C 11.253906 19.300781 11.453125 19.429688 11.660156 19.558594 C 12.070312 19.808594 12.476562 20.0625 12.894531 20.300781 C 13.289062 20.523438 13.683594 20.742188 14.070312 20.976562 C 14.25 21.085938 14.421875 21.210938 14.5625 21.371094 C 14.640625 21.457031 14.761719 21.589844 14.773438 21.691406 Z M 14.617188 21.164062 C 14.539062 21.085938 14.453125 21.015625 14.363281 20.949219 C 14.183594 20.820312 13.988281 20.710938 13.792969 20.605469 C 13.574219 20.480469 13.359375 20.351562 13.144531 20.230469 C 12.765625 20.015625 12.394531 19.785156 12.019531 19.558594 C 11.617188 19.3125 11.257812 19 10.863281 18.738281 C 10.789062 18.6875 10.710938 18.617188 10.628906 18.566406 C 10.628906 18.558594 10.628906 18.550781 10.628906 18.542969 C 10.613281 18.316406 10.515625 18.113281 10.378906 17.933594 C 10.417969 17.964844 10.460938 17.996094 10.503906 18.019531 C 10.707031 18.148438 11.042969 18.289062 11.265625 18.144531 C 11.339844 18.210938 11.417969 18.265625 11.496094 18.320312 C 11.546875 18.359375 11.601562 18.402344 11.652344 18.445312 C 11.785156 18.574219 11.945312 18.683594 12.097656 18.789062 C 12.441406 19.023438 12.792969 19.253906 13.136719 19.492188 C 13.484375 19.734375 13.828125 19.988281 14.101562 20.308594 C 14.230469 20.457031 14.335938 20.621094 14.429688 20.789062 C 14.472656 20.867188 14.511719 20.953125 14.558594 21.03125 C 14.582031 21.074219 14.601562 21.117188 14.617188 21.164062 Z M 16.558594 18.910156 C 16.539062 18.792969 16.507812 18.679688 16.472656 18.566406 C 16.410156 18.390625 16.3125 18.21875 16.210938 18.0625 C 16.160156 17.988281 15.859375 17.644531 15.863281 17.65625 C 15.894531 18.140625 16.015625 18.613281 15.960938 19.101562 C 15.933594 19.34375 15.871094 19.582031 15.816406 19.820312 C 15.785156 19.957031 15.765625 20.09375 15.746094 20.234375 C 15.746094 20.226562 15.742188 20.21875 15.742188 20.210938 C 15.714844 20.042969 15.660156 19.878906 15.597656 19.722656 C 15.46875 19.394531 15.101562 18.777344 15.101562 18.789062 C 15.105469 18.878906 15.125 18.96875 15.125 19.058594 C 15.125 19.152344 15.128906 19.25 15.132812 19.34375 C 15.140625 19.5625 15.148438 19.773438 15.132812 19.988281 C 15.117188 20.183594 15.097656 20.378906 15.117188 20.578125 C 15.125 20.65625 15.144531 20.738281 15.167969 20.816406 C 15.121094 20.734375 15.074219 20.652344 15.027344 20.574219 C 14.949219 20.433594 14.886719 20.292969 14.816406 20.148438 C 14.742188 20.007812 14.476562 19.535156 14.480469 19.542969 C 14.515625 19.660156 14.535156 19.777344 14.53125 19.898438 C 14.53125 20.019531 14.5 20.136719 14.484375 20.257812 C 14.476562 20.332031 14.46875 20.40625 14.460938 20.480469 C 14.457031 20.386719 14.449219 20.296875 14.421875 20.203125 C 14.402344 20.132812 14.378906 20.066406 14.351562 20.003906 C 14.371094 19.902344 14.386719 19.800781 14.394531 19.703125 C 14.417969 19.496094 14.386719 19.320312 14.324219 19.125 C 14.210938 18.765625 14.046875 18.4375 13.8125 18.140625 C 13.773438 18.09375 13.734375 18.046875 13.695312 18.003906 C 13.683594 17.835938 13.609375 17.660156 13.554688 17.507812 C 13.503906 17.359375 13.421875 17.210938 13.328125 17.078125 C 13.289062 16.878906 13.242188 16.683594 13.175781 16.496094 C 13.105469 16.304688 12.992188 16.132812 12.871094 15.972656 C 12.734375 15.796875 12.558594 15.664062 12.390625 15.515625 C 12.222656 15.371094 12.074219 15.214844 11.890625 15.089844 C 11.851562 14.894531 11.808594 14.695312 11.757812 14.503906 C 11.6875 14.238281 11.585938 13.992188 11.460938 13.75 C 11.433594 13.691406 11.402344 13.625 11.359375 13.566406 C 11.453125 13.585938 11.550781 13.601562 11.644531 13.621094 C 11.832031 13.664062 12.019531 13.730469 12.195312 13.8125 C 12.285156 13.855469 12.367188 13.890625 12.449219 13.945312 C 12.527344 14 12.691406 14.117188 12.695312 14.109375 C 12.699219 14.109375 12.605469 13.921875 12.550781 13.832031 C 12.5 13.734375 12.464844 13.632812 12.417969 13.535156 C 12.324219 13.335938 12.238281 13.132812 12.15625 12.929688 C 12.273438 13.132812 12.410156 13.308594 12.578125 13.46875 C 12.953125 13.832031 13.429688 14.050781 13.863281 14.335938 C 13.878906 14.359375 13.890625 14.378906 13.90625 14.402344 C 13.984375 14.527344 14.035156 14.667969 14.097656 14.800781 C 14.144531 14.90625 14.195312 15.011719 14.246094 15.117188 C 14.207031 15.066406 14.164062 15.019531 14.121094 14.976562 C 13.984375 14.851562 13.855469 14.703125 13.699219 14.605469 C 13.699219 14.601562 13.695312 14.605469 13.699219 14.609375 C 13.816406 14.738281 13.898438 14.890625 14 15.03125 C 14.105469 15.179688 14.203125 15.332031 14.300781 15.488281 C 14.488281 15.789062 14.617188 16.097656 14.632812 16.453125 C 14.636719 16.570312 14.625 16.6875 14.609375 16.804688 C 14.566406 16.6875 14.503906 16.578125 14.425781 16.480469 C 14.191406 16.195312 13.851562 16.023438 13.617188 15.742188 C 13.605469 15.730469 13.722656 15.980469 13.773438 16.070312 C 13.820312 16.171875 13.859375 16.277344 13.910156 16.375 C 14.011719 16.582031 14.101562 16.78125 14.152344 17.011719 C 14.203125 17.230469 14.207031 17.453125 14.25 17.671875 C 14.265625 17.765625 14.289062 17.859375 14.308594 17.953125 C 14.246094 17.84375 14.179688 17.734375 14.109375 17.628906 C 13.933594 17.351562 13.683594 17.160156 13.449219 16.933594 C 13.4375 16.921875 13.820312 17.457031 13.972656 17.742188 C 14.046875 17.882812 14.132812 18.019531 14.214844 18.15625 C 14.292969 18.289062 14.367188 18.421875 14.472656 18.53125 C 14.488281 18.546875 14.421875 17.929688 14.414062 17.621094 C 14.410156 17.398438 14.378906 17.171875 14.328125 16.957031 C 14.289062 16.78125 14.234375 16.609375 14.152344 16.449219 C 14.171875 16.472656 14.195312 16.496094 14.214844 16.519531 C 14.320312 16.636719 14.40625 16.761719 14.453125 16.910156 C 14.503906 17.054688 14.589844 17.453125 14.59375 17.4375 C 14.660156 17.292969 14.734375 17.152344 14.769531 17 C 14.804688 16.835938 14.816406 16.660156 14.816406 16.496094 C 14.820312 16.179688 14.738281 15.863281 14.636719 15.566406 C 14.535156 15.277344 14.410156 15 14.261719 14.734375 C 14.214844 14.648438 14.152344 14.566406 14.085938 14.488281 C 14.507812 14.78125 14.929688 15.0625 15.289062 15.433594 C 15.660156 15.820312 16.003906 16.25 16.253906 16.726562 C 16.441406 17.082031 16.550781 17.464844 16.585938 17.867188 C 16.621094 18.222656 16.601562 18.5625 16.558594 18.910156 Z M 16.53125 16.890625 C 16.601562 16.886719 16.671875 16.882812 16.742188 16.878906 C 16.875 16.878906 17.011719 16.898438 17.140625 16.929688 C 17.214844 16.945312 17.285156 16.972656 17.351562 17.003906 C 17.117188 17.074219 16.886719 17.148438 16.65625 17.226562 C 16.621094 17.113281 16.578125 17 16.53125 16.890625 Z M 16.707031 17.429688 C 16.757812 17.414062 16.808594 17.402344 16.859375 17.386719 C 17.121094 17.316406 17.386719 17.253906 17.648438 17.183594 C 17.671875 17.203125 17.699219 17.222656 17.722656 17.242188 C 17.699219 17.246094 17.675781 17.25 17.652344 17.257812 C 17.507812 17.289062 17.367188 17.324219 17.226562 17.363281 C 17.058594 17.410156 16.878906 17.4375 16.726562 17.519531 C 16.71875 17.492188 16.714844 17.460938 16.707031 17.429688 Z M 18.039062 18.578125 C 17.769531 18.535156 17.511719 18.460938 17.253906 18.382812 C 17.097656 18.332031 16.941406 18.292969 16.785156 18.253906 C 16.785156 18.046875 16.773438 17.835938 16.742188 17.625 C 16.804688 17.609375 16.867188 17.601562 16.929688 17.589844 C 17.042969 17.566406 17.15625 17.539062 17.269531 17.511719 C 17.398438 17.480469 17.527344 17.445312 17.660156 17.417969 C 17.738281 17.40625 17.808594 17.402344 17.875 17.382812 C 18.191406 17.699219 18.390625 18.117188 18.507812 18.546875 C 18.519531 18.578125 18.527344 18.609375 18.53125 18.640625 C 18.367188 18.625 18.199219 18.605469 18.039062 18.578125 Z M 19.253906 20.164062 C 19.214844 20.347656 19.148438 20.519531 19.085938 20.699219 C 19.046875 20.8125 18.996094 20.925781 18.9375 21.03125 C 18.925781 21.054688 18.867188 21.171875 18.835938 21.175781 C 18.773438 21.179688 18.777344 21.0625 18.777344 21.019531 C 18.769531 20.878906 18.777344 20.742188 18.785156 20.605469 C 18.800781 20.320312 18.792969 20.027344 18.796875 19.738281 C 18.796875 19.730469 18.796875 19.71875 18.796875 19.710938 C 18.828125 19.582031 18.871094 19.460938 18.894531 19.328125 C 18.933594 19.078125 18.917969 18.835938 18.890625 18.585938 C 18.8125 17.769531 18.3125 17.191406 18.320312 17.207031 C 18.515625 17.652344 18.65625 18.121094 18.71875 18.609375 C 18.726562 18.660156 18.730469 18.710938 18.734375 18.761719 C 18.703125 18.554688 18.648438 18.351562 18.570312 18.152344 C 18.398438 17.710938 18.117188 17.300781 17.730469 17.019531 C 17.535156 16.878906 17.316406 16.777344 17.074219 16.730469 C 16.886719 16.691406 16.664062 16.695312 16.480469 16.769531 C 16.40625 16.621094 16.328125 16.476562 16.238281 16.335938 C 16.214844 16.300781 16.429688 16.199219 16.453125 16.1875 C 16.570312 16.125 16.679688 16.085938 16.816406 16.066406 C 17.039062 16.027344 17.265625 16.023438 17.484375 16.085938 C 17.945312 16.21875 18.304688 16.582031 18.574219 16.960938 C 18.894531 17.414062 19.148438 17.925781 19.246094 18.472656 C 19.292969 18.757812 19.304688 19.046875 19.308594 19.335938 C 19.3125 19.613281 19.308594 19.890625 19.253906 20.164062 Z M 19.667969 18.667969 C 19.597656 18.671875 19.527344 18.671875 19.457031 18.671875 C 19.441406 18.511719 19.414062 18.355469 19.375 18.199219 C 19.269531 17.792969 19.085938 17.410156 18.859375 17.058594 C 18.863281 17.058594 18.867188 17.058594 18.871094 17.058594 C 18.898438 17.0625 18.921875 17.058594 18.953125 17.054688 C 19.042969 17.042969 19.128906 17.027344 19.21875 17.011719 C 19.335938 16.988281 19.460938 16.984375 19.582031 16.964844 C 19.683594 17.214844 19.761719 17.476562 19.816406 17.746094 C 19.871094 18.023438 19.917969 18.300781 19.949219 18.582031 C 19.953125 18.605469 19.953125 18.625 19.957031 18.648438 C 19.859375 18.660156 19.765625 18.664062 19.667969 18.667969 Z M 20.5625 19.675781 C 20.542969 19.789062 20.375 20.535156 20.136719 20.40625 C 20.03125 20.347656 20.054688 20.089844 20.054688 19.992188 C 20.054688 19.792969 20.09375 19.601562 20.117188 19.40625 C 20.152344 19.121094 20.15625 18.8125 20.125 18.527344 C 20.117188 18.4375 20.105469 18.351562 20.09375 18.261719 C 20.09375 18.253906 20.09375 18.25 20.097656 18.242188 C 20.125 18.101562 20.144531 17.949219 20.152344 17.804688 C 20.175781 17.507812 20.164062 17.210938 20.097656 16.921875 C 19.878906 15.996094 19.363281 15.507812 19.375 15.519531 C 19.679688 15.957031 19.792969 16.464844 19.917969 16.96875 C 19.972656 17.183594 19.980469 17.398438 19.980469 17.613281 C 19.878906 17.085938 19.664062 16.585938 19.347656 16.152344 C 19.046875 15.730469 18.675781 15.292969 18.195312 15.074219 C 17.945312 14.964844 17.597656 14.863281 17.324219 14.875 C 17.226562 14.878906 17.125 14.890625 17.023438 14.90625 C 17.058594 14.8125 17.097656 14.714844 17.09375 14.71875 C 17.042969 14.769531 16.992188 14.824219 16.929688 14.855469 C 16.863281 14.890625 16.800781 14.933594 16.742188 14.976562 C 16.621094 15.070312 16.496094 15.160156 16.378906 15.261719 C 16.335938 15.300781 16.296875 15.339844 16.257812 15.382812 C 16.257812 15.378906 16.257812 15.378906 16.257812 15.375 C 16.277344 15.15625 16.285156 14.941406 16.261719 14.722656 C 16.253906 14.640625 16.242188 14.5625 16.230469 14.484375 C 16.300781 14.421875 16.371094 14.363281 16.4375 14.308594 C 16.613281 14.164062 16.804688 14.046875 17.015625 13.953125 C 17.476562 13.746094 17.972656 13.667969 18.46875 13.820312 C 18.949219 13.964844 19.390625 14.285156 19.710938 14.667969 C 20.023438 15.042969 20.21875 15.488281 20.386719 15.941406 C 20.507812 16.269531 20.609375 16.601562 20.664062 16.949219 C 20.722656 17.320312 20.714844 17.703125 20.71875 18.078125 C 20.726562 18.625 20.671875 19.140625 20.5625 19.675781 Z M 17.289062 12.769531 C 17.476562 12.59375 17.671875 12.425781 17.871094 12.265625 C 18.277344 11.945312 18.710938 11.65625 19.167969 11.414062 C 19.648438 11.15625 20.15625 10.945312 20.667969 10.765625 C 21.207031 10.578125 21.765625 10.441406 22.339844 10.441406 C 22.640625 10.441406 22.9375 10.488281 23.226562 10.570312 C 23.339844 10.601562 23.449219 10.636719 23.546875 10.703125 C 23.582031 10.730469 23.621094 10.757812 23.652344 10.785156 C 23.890625 11.074219 24.089844 11.410156 24.242188 11.78125 C 24.308594 11.945312 24.371094 12.101562 24.421875 12.253906 C 24.371094 12.191406 24.308594 12.136719 24.246094 12.089844 C 24.085938 11.972656 23.871094 11.925781 23.675781 11.90625 C 23.46875 11.886719 23.257812 11.90625 23.050781 11.929688 C 22.792969 11.960938 22.535156 11.996094 22.277344 12.046875 C 21.996094 12.097656 21.71875 12.160156 21.445312 12.246094 C 21.175781 12.335938 20.914062 12.453125 20.652344 12.566406 C 20.269531 12.734375 19.898438 12.925781 19.523438 13.109375 C 19.339844 13.199219 18.570312 13.636719 18.539062 13.652344 C 18.179688 13.542969 17.800781 13.515625 17.421875 13.617188 C 17.183594 13.679688 16.953125 13.765625 16.738281 13.882812 C 16.820312 13.753906 16.9375 13.632812 17.035156 13.523438 C 17.175781 13.359375 17.304688 13.191406 17.449219 13.035156 C 17.78125 12.675781 18.191406 12.40625 18.597656 12.140625 C 19.011719 11.871094 19.433594 11.601562 19.867188 11.363281 C 20.308594 11.125 20.777344 10.941406 21.242188 10.757812 C 21.246094 10.757812 20.285156 11.082031 19.824219 11.292969 C 19.59375 11.402344 19.359375 11.496094 19.132812 11.617188 C 18.902344 11.746094 18.675781 11.886719 18.453125 12.03125 C 18.035156 12.308594 17.617188 12.582031 17.28125 12.960938 C 17.136719 13.125 17.007812 13.300781 16.867188 13.464844 C 16.8125 13.53125 16.757812 13.601562 16.710938 13.675781 C 16.804688 13.46875 16.910156 13.253906 17.023438 13.027344 C 17.109375 12.941406 17.199219 12.855469 17.289062 12.769531 Z M 17.199219 12.691406 C 17.332031 12.445312 17.476562 12.199219 17.628906 11.953125 C 18.089844 11.214844 18.796875 10.246094 19.546875 9.847656 C 20.320312 9.433594 21.257812 9.375 22.121094 9.6875 C 22.558594 9.84375 22.953125 10.085938 23.296875 10.402344 C 23.082031 10.320312 22.832031 10.289062 22.609375 10.269531 C 22.046875 10.21875 21.480469 10.324219 20.945312 10.480469 C 20.417969 10.636719 19.898438 10.851562 19.402344 11.085938 C 18.9375 11.308594 18.496094 11.574219 18.082031 11.878906 C 17.820312 12.074219 17.578125 12.292969 17.347656 12.527344 C 17.296875 12.578125 17.25 12.632812 17.199219 12.691406 Z M 21.398438 12.582031 C 21.066406 12.707031 20.734375 12.832031 20.40625 12.96875 C 20.078125 13.105469 19.765625 13.265625 19.445312 13.417969 C 19.304688 13.488281 19.160156 13.550781 19.023438 13.625 C 18.964844 13.65625 18.875 13.703125 18.832031 13.765625 C 18.796875 13.75 18.757812 13.734375 18.722656 13.71875 C 18.863281 13.65625 19.265625 13.4375 19.398438 13.371094 C 19.65625 13.242188 19.914062 13.113281 20.175781 12.988281 C 20.699219 12.734375 21.222656 12.488281 21.789062 12.332031 C 22.0625 12.257812 22.347656 12.214844 22.628906 12.167969 C 22.859375 12.132812 23.085938 12.097656 23.320312 12.085938 C 23.683594 12.066406 24.273438 12.097656 24.375 12.546875 C 24.414062 12.714844 24.273438 12.867188 24.175781 12.988281 C 24.085938 13.097656 23.980469 13.199219 23.878906 13.300781 C 23.367188 13.265625 22.839844 13.371094 22.34375 13.480469 C 21.917969 13.574219 21.496094 13.683594 21.082031 13.820312 C 20.828125 13.910156 20.578125 14 20.320312 14.082031 C 20.105469 14.148438 19.898438 14.234375 19.644531 14.328125 C 19.574219 14.253906 19.527344 14.21875 19.449219 14.152344 C 19.296875 14.03125 19.136719 13.925781 18.96875 13.835938 C 18.976562 13.832031 18.980469 13.824219 18.988281 13.820312 C 19.039062 13.789062 19.089844 13.761719 19.144531 13.738281 C 19.292969 13.664062 19.441406 13.597656 19.59375 13.527344 C 19.90625 13.382812 20.210938 13.222656 20.523438 13.066406 C 21.117188 12.769531 21.722656 12.460938 22.371094 12.300781 C 22.382812 12.296875 21.714844 12.460938 21.398438 12.582031 Z M 24.546875 12.664062 C 24.644531 13.007812 24.703125 13.324219 24.738281 13.613281 C 24.726562 13.601562 24.71875 13.589844 24.703125 13.578125 C 24.523438 13.398438 24.253906 13.339844 24.007812 13.308594 C 24.261719 13.160156 24.507812 12.957031 24.546875 12.664062 Z M 21.039062 18.308594 C 21.015625 18.320312 20.957031 18.347656 20.90625 18.371094 C 20.910156 18.144531 20.902344 17.917969 20.898438 17.691406 C 20.890625 17.417969 20.878906 17.144531 20.835938 16.871094 C 20.921875 16.894531 21 16.921875 21.078125 16.960938 C 21.316406 17.085938 21.550781 17.320312 21.578125 17.597656 C 21.613281 17.9375 21.292969 18.15625 21.039062 18.308594 Z M 23.757812 15.527344 C 23.9375 15.621094 24.058594 15.792969 24.0625 15.996094 C 24.070312 16.265625 23.847656 16.5 23.636719 16.632812 C 23.40625 16.78125 23.15625 16.882812 22.890625 16.953125 C 22.742188 16.992188 22.59375 17.027344 22.445312 17.058594 C 22.257812 17.097656 22.074219 17.160156 21.886719 17.191406 C 21.804688 17.207031 21.707031 17.207031 21.628906 17.238281 C 21.5625 17.117188 21.460938 17 21.320312 16.898438 C 21.164062 16.78125 20.988281 16.714844 20.800781 16.675781 C 20.75 16.429688 20.671875 16.191406 20.585938 15.957031 C 20.574219 15.921875 20.5625 15.890625 20.550781 15.855469 C 20.578125 15.859375 20.601562 15.855469 20.628906 15.855469 C 20.75 15.851562 20.871094 15.835938 20.992188 15.828125 C 21.261719 15.804688 21.53125 15.773438 21.796875 15.734375 C 22.0625 15.699219 22.328125 15.660156 22.59375 15.644531 C 22.867188 15.625 23.140625 15.632812 23.410156 15.621094 C 23.421875 15.621094 22.34375 15.542969 21.8125 15.578125 C 21.550781 15.597656 21.289062 15.625 21.027344 15.648438 C 20.859375 15.664062 20.664062 15.671875 20.496094 15.714844 C 20.484375 15.683594 20.472656 15.652344 20.460938 15.621094 C 20.535156 15.621094 20.613281 15.601562 20.679688 15.589844 C 20.710938 15.585938 20.742188 15.582031 20.773438 15.578125 C 20.785156 15.578125 20.800781 15.574219 20.8125 15.574219 C 20.96875 15.558594 21.121094 15.535156 21.277344 15.519531 C 21.574219 15.488281 21.871094 15.46875 22.171875 15.4375 C 22.6875 15.390625 23.277344 15.273438 23.757812 15.527344 Z M 24.664062 14.511719 C 24.539062 14.773438 24.273438 14.933594 24.019531 15.050781 C 23.84375 15.128906 23.660156 15.183594 23.480469 15.238281 C 23.421875 15.226562 23.367188 15.214844 23.3125 15.207031 C 23.042969 15.175781 22.773438 15.195312 22.507812 15.226562 C 22.21875 15.253906 21.925781 15.277344 21.636719 15.308594 C 21.425781 15.328125 21.214844 15.355469 21.003906 15.382812 C 20.898438 15.398438 20.792969 15.414062 20.6875 15.4375 C 20.667969 15.441406 20.652344 15.445312 20.636719 15.449219 C 20.601562 15.457031 20.570312 15.464844 20.542969 15.46875 C 20.535156 15.46875 20.457031 15.476562 20.40625 15.496094 C 20.375 15.421875 20.34375 15.351562 20.308594 15.277344 C 20.199219 15.050781 20.070312 14.832031 19.914062 14.632812 C 19.933594 14.625 19.957031 14.621094 19.972656 14.617188 C 20.023438 14.601562 20.078125 14.585938 20.132812 14.566406 C 20.269531 14.523438 20.40625 14.480469 20.546875 14.4375 C 20.84375 14.339844 21.140625 14.238281 21.4375 14.132812 C 21.734375 14.023438 22.03125 13.925781 22.332031 13.839844 C 22.632812 13.753906 23.242188 13.574219 23.234375 13.574219 C 22.597656 13.691406 21.957031 13.851562 21.328125 14.019531 C 21.015625 14.105469 20.714844 14.210938 20.40625 14.308594 C 20.265625 14.351562 20.128906 14.394531 19.996094 14.445312 C 19.929688 14.472656 19.875 14.492188 19.832031 14.53125 C 19.808594 14.503906 19.785156 14.476562 19.761719 14.449219 C 19.859375 14.414062 19.957031 14.371094 20.054688 14.335938 C 20.1875 14.289062 20.320312 14.25 20.453125 14.207031 C 20.722656 14.121094 20.988281 14.015625 21.257812 13.929688 C 21.660156 13.796875 22.066406 13.695312 22.484375 13.609375 C 22.765625 13.550781 23.050781 13.496094 23.339844 13.472656 C 23.628906 13.445312 23.933594 13.433594 24.21875 13.5 C 24.402344 13.542969 24.585938 13.628906 24.683594 13.800781 C 24.800781 14.003906 24.765625 14.304688 24.664062 14.511719 Z M 25.519531 12.054688 C 25.777344 12.949219 25.832031 13.832031 25.800781 14.355469 C 25.777344 14.738281 25.707031 15.222656 25.621094 15.59375 C 25.464844 16.269531 25.328125 16.300781 25.320312 16.300781 C 25.296875 16.304688 25.234375 16.257812 25.152344 16.0625 C 24.992188 15.671875 24.984375 15.242188 24.972656 14.742188 C 24.964844 14.359375 24.957031 13.933594 24.882812 13.441406 C 24.902344 13.316406 24.917969 13.191406 24.921875 13.066406 C 24.929688 12.855469 24.921875 12.644531 24.910156 12.433594 C 24.902344 12.226562 24.894531 12.011719 24.84375 11.8125 C 24.792969 11.59375 24.644531 11.152344 24.652344 11.171875 C 24.695312 11.378906 24.710938 11.582031 24.703125 11.796875 C 24.695312 12.007812 24.71875 12.21875 24.726562 12.433594 C 24.730469 12.523438 24.734375 12.617188 24.734375 12.707031 C 24.652344 12.402344 24.542969 12.070312 24.398438 11.714844 C 24.027344 10.824219 23.40625 10.128906 22.617188 9.722656 C 22.582031 9.675781 22.542969 9.632812 22.503906 9.589844 C 22.433594 9.507812 22.332031 9.449219 22.246094 9.386719 C 22.066406 9.261719 21.871094 9.15625 21.667969 9.066406 C 21.042969 8.796875 20.359375 8.890625 20.371094 8.890625 C 20.808594 8.898438 21.222656 9.042969 21.613281 9.222656 C 21.78125 9.300781 21.9375 9.394531 22.089844 9.5 C 21.207031 9.207031 20.257812 9.277344 19.46875 9.699219 C 19.375 9.75 19.28125 9.808594 19.191406 9.871094 C 19.058594 9.929688 18.929688 10 18.816406 10.082031 C 18.613281 10.230469 18.417969 10.402344 18.226562 10.5625 C 18.035156 10.71875 17.839844 10.871094 17.675781 11.058594 C 17.523438 11.234375 17.277344 11.644531 17.28125 11.636719 C 17.429688 11.476562 17.578125 11.316406 17.742188 11.167969 C 17.925781 11.007812 18.121094 10.855469 18.3125 10.699219 C 18.320312 10.695312 18.328125 10.6875 18.335938 10.683594 C 18.007812 11.070312 17.714844 11.496094 17.484375 11.867188 C 16.976562 12.683594 16.570312 13.535156 16.316406 14.175781 C 16.273438 14.210938 16.230469 14.253906 16.195312 14.296875 C 16.183594 14.242188 16.171875 14.191406 16.15625 14.136719 C 16.246094 13.542969 16.566406 11.972656 17.535156 10.382812 C 18.15625 9.367188 19.210938 8.65625 20.425781 8.4375 C 21.621094 8.222656 22.804688 8.519531 23.753906 9.269531 C 24.585938 9.925781 25.179688 10.863281 25.519531 12.054688 Z M 24.285156 9.109375 C 24.390625 9.296875 24.460938 9.5 24.519531 9.703125 C 24.53125 9.742188 24.542969 9.777344 24.554688 9.816406 C 24.34375 9.566406 24.109375 9.339844 23.855469 9.136719 C 22.871094 8.359375 21.640625 8.050781 20.398438 8.273438 C 19.789062 8.382812 19.195312 8.621094 18.679688 8.964844 C 18.15625 9.3125 17.710938 9.773438 17.390625 10.296875 C 16.742188 11.363281 16.386719 12.410156 16.203125 13.105469 C 16.132812 13.371094 16.082031 13.601562 16.046875 13.789062 C 16.003906 13.660156 15.964844 13.546875 15.964844 13.558594 C 15.96875 13.613281 15.929688 14.144531 15.898438 14.296875 C 15.878906 14.378906 15.855469 14.460938 15.828125 14.542969 C 15.824219 14.480469 15.8125 14.417969 15.804688 14.359375 C 15.796875 14.296875 15.785156 14.234375 15.769531 14.175781 C 15.984375 12.632812 16.496094 11.164062 17.21875 10.023438 C 18.027344 8.75 19.050781 7.945312 20.175781 7.707031 C 21.152344 7.503906 22.199219 7.570312 23.121094 7.96875 C 23.234375 8.015625 23.34375 8.070312 23.449219 8.128906 C 23.539062 8.175781 23.695312 8.234375 23.761719 8.308594 C 23.851562 8.414062 23.925781 8.53125 24.003906 8.648438 C 24.105469 8.800781 24.199219 8.953125 24.285156 9.109375 Z M 26.234375 11.371094 C 26.21875 11.390625 26.210938 11.394531 26.210938 11.394531 C 26.207031 11.394531 26.160156 11.386719 26.054688 11.210938 C 25.972656 11.074219 25.875 10.878906 25.765625 10.65625 C 25.644531 10.410156 25.507812 10.128906 25.347656 9.839844 C 25.296875 9.6875 25.269531 9.527344 25.199219 9.378906 C 25.113281 9.183594 25.015625 8.996094 24.921875 8.804688 C 24.609375 8.175781 24.136719 7.828125 24.140625 7.835938 C 24.414062 8.164062 24.582031 8.550781 24.777344 8.925781 C 24.804688 8.972656 24.828125 9.023438 24.851562 9.070312 C 24.414062 8.503906 23.777344 8.042969 23.046875 7.753906 C 23.027344 7.746094 23.007812 7.742188 22.988281 7.734375 C 22.910156 7.660156 22.804688 7.609375 22.71875 7.558594 C 22.53125 7.445312 22.335938 7.347656 22.140625 7.25 C 21.960938 7.160156 21.78125 7.097656 21.585938 7.0625 C 21.386719 7.03125 21.164062 6.992188 20.96875 7.015625 C 20.957031 7.015625 21.363281 7.117188 21.554688 7.175781 C 21.742188 7.234375 21.90625 7.335938 22.078125 7.425781 C 22.148438 7.457031 22.214844 7.492188 22.285156 7.53125 C 21.625 7.390625 20.921875 7.390625 20.222656 7.527344 C 20.011719 7.492188 19.789062 7.503906 19.582031 7.519531 C 19.25 7.539062 18.941406 7.601562 18.625 7.71875 C 18.324219 7.828125 18.035156 7.976562 17.765625 8.15625 C 17.632812 8.246094 17.511719 8.363281 17.402344 8.476562 C 17.289062 8.589844 17.070312 8.855469 17.082031 8.84375 C 17.191406 8.738281 17.699219 8.40625 17.832031 8.328125 C 18.105469 8.167969 18.375 8.007812 18.675781 7.894531 C 18.8125 7.84375 18.949219 7.800781 19.09375 7.765625 C 19.242188 7.726562 19.398438 7.6875 19.554688 7.671875 C 19.605469 7.667969 19.65625 7.667969 19.707031 7.664062 C 18.707031 8.007812 17.804688 8.785156 17.078125 9.933594 C 16.390625 11.015625 15.894531 12.382812 15.652344 13.828125 C 15.625 13.765625 15.597656 13.707031 15.566406 13.648438 C 15.558594 13.632812 15.550781 13.621094 15.542969 13.609375 C 15.519531 13.167969 15.5 12.257812 15.6875 11.234375 C 15.925781 9.917969 16.5625 8.140625 18.230469 7.148438 C 21.496094 5.207031 24.621094 6.898438 25.707031 8.652344 C 26.425781 9.8125 26.539062 10.945312 26.234375 11.371094 " fill-opacity="1" fill-rule="nonzero"/></g></svg>