<svg xmlns="http://www.w3.org/2000/svg" xmlns:xlink="http://www.w3.org/1999/xlink" width="40" zoomAndPan="magnify" viewBox="0 0 30 30.000001" height="40" preserveAspectRatio="xMidYMid meet" version="1.0"><defs><clipPath id="2f5406b12a"><path d="M 1.210938 0 L 28.792969 0 L 28.792969 29 L 1.210938 29 Z M 1.210938 0 " clip-rule="nonzero"/></clipPath></defs><g clip-path="url(#2f5406b12a)"><path fill="#ff6100" d="M 28.730469 22.175781 C 28.683594 22.097656 28.59375 22.058594 28.503906 22.074219 C 28.070312 22.15625 27.640625 22.230469 27.207031 22.308594 C 27.207031 22.289062 27.207031 22.273438 27.207031 22.257812 C 26.507812 17.960938 24.871094 13.796875 22.472656 10.21875 C 21.246094 8.394531 19.839844 6.734375 18.285156 5.292969 C 16.703125 3.832031 14.972656 2.59375 13.136719 1.609375 L 13.101562 0.226562 C 13.101562 0.109375 13 0.0117188 12.878906 0.0117188 C 12.761719 0.0117188 12.664062 0.109375 12.65625 0.226562 L 12.585938 3.007812 C 11.542969 6.488281 10.21875 9.914062 8.65625 13.191406 C 6.828125 17.015625 4.640625 20.699219 2.15625 24.140625 C 1.921875 24.132812 1.6875 24.128906 1.453125 24.121094 C 1.367188 24.117188 1.292969 24.164062 1.25 24.238281 C 1.210938 24.3125 1.214844 24.402344 1.265625 24.46875 L 4.355469 28.800781 C 4.398438 28.859375 4.464844 28.894531 4.535156 28.894531 L 23.917969 28.894531 C 23.988281 28.894531 24.054688 28.859375 24.097656 28.800781 L 28.71875 22.425781 C 28.777344 22.351562 28.78125 22.253906 28.730469 22.175781 Z M 4.652344 28.449219 L 1.890625 24.578125 C 3.851562 24.636719 5.839844 24.648438 7.800781 24.613281 C 8.585938 24.597656 9.371094 24.578125 10.15625 24.546875 C 10.71875 24.527344 11.28125 24.503906 11.839844 24.476562 C 11.980469 24.46875 12.121094 24.460938 12.261719 24.453125 C 12.265625 24.453125 12.269531 24.453125 12.273438 24.453125 C 12.273438 24.453125 12.273438 24.453125 12.277344 24.453125 C 12.363281 24.449219 12.457031 24.441406 12.554688 24.4375 C 12.558594 24.4375 12.566406 24.4375 12.574219 24.4375 C 12.589844 24.4375 12.605469 24.433594 12.621094 24.433594 C 12.628906 24.433594 12.628906 24.433594 12.636719 24.433594 C 12.644531 24.433594 12.648438 24.433594 12.65625 24.433594 C 12.664062 24.433594 12.671875 24.433594 12.679688 24.433594 C 12.691406 24.433594 12.699219 24.433594 12.707031 24.429688 C 12.71875 24.429688 12.734375 24.429688 12.746094 24.429688 C 12.753906 24.429688 12.757812 24.429688 12.765625 24.429688 C 12.78125 24.429688 12.792969 24.425781 12.808594 24.425781 C 12.824219 24.425781 12.835938 24.421875 12.851562 24.421875 C 12.855469 24.421875 12.863281 24.421875 12.867188 24.421875 C 12.902344 24.421875 12.9375 24.417969 12.96875 24.417969 C 12.996094 24.414062 13.023438 24.414062 13.046875 24.414062 C 13.195312 24.40625 13.347656 24.394531 13.515625 24.386719 C 13.605469 24.378906 13.691406 24.375 13.777344 24.367188 L 13.820312 24.367188 C 13.878906 24.359375 13.9375 24.359375 13.996094 24.351562 C 14.175781 24.339844 14.351562 24.328125 14.53125 24.316406 C 15.917969 24.214844 17.324219 24.09375 18.707031 23.949219 C 21.816406 23.621094 24.953125 23.171875 28.035156 22.617188 L 23.804688 28.449219 Z M 12.546875 4.632812 C 12.601562 4.464844 12.65625 4.296875 12.707031 4.125 C 12.726562 4.316406 12.746094 4.507812 12.765625 4.699219 C 13.039062 7.550781 13.117188 10.425781 13 13.277344 C 13 13.28125 13 13.28125 13 13.285156 C 12.9375 14.800781 12.820312 16.320312 12.648438 17.832031 C 12.566406 18.535156 12.476562 19.238281 12.371094 19.9375 C 12.289062 20.484375 12.199219 21.03125 12.105469 21.570312 C 12.09375 21.625 12.085938 21.679688 12.074219 21.738281 C 10.246094 21.546875 8.417969 21.6875 6.648438 22.152344 C 5.40625 22.480469 4.214844 22.960938 3.09375 23.589844 C 5.359375 20.363281 7.363281 16.933594 9.058594 13.382812 C 10.40625 10.558594 11.578125 7.621094 12.546875 4.632812 Z M 18.386719 23.53125 C 18.347656 23.535156 18.304688 23.539062 18.261719 23.542969 C 18.1875 23.550781 18.109375 23.558594 18.027344 23.566406 C 17.9375 23.578125 17.851562 23.585938 17.761719 23.59375 C 17.679688 23.601562 17.601562 23.609375 17.523438 23.617188 C 17.433594 23.625 17.34375 23.632812 17.253906 23.640625 C 17.175781 23.648438 17.097656 23.65625 17.015625 23.664062 C 16.925781 23.671875 16.835938 23.679688 16.75 23.6875 C 16.671875 23.695312 16.589844 23.703125 16.511719 23.710938 C 16.421875 23.71875 16.332031 23.722656 16.238281 23.730469 C 16.160156 23.738281 16.085938 23.746094 16.007812 23.753906 C 15.914062 23.757812 15.816406 23.765625 15.71875 23.773438 C 15.648438 23.78125 15.578125 23.785156 15.503906 23.792969 C 15.398438 23.800781 15.292969 23.808594 15.183594 23.816406 C 15.125 23.820312 15.0625 23.828125 15 23.832031 C 14.832031 23.84375 14.664062 23.855469 14.5 23.871094 C 14.265625 23.886719 14.027344 23.902344 13.792969 23.917969 L 13.75 23.917969 C 13.742188 23.917969 13.730469 23.921875 13.71875 23.921875 C 13.644531 23.925781 13.570312 23.933594 13.496094 23.9375 C 13.492188 23.9375 13.492188 23.9375 13.488281 23.9375 C 13.417969 23.941406 13.34375 23.949219 13.277344 23.949219 C 13.253906 23.953125 13.234375 23.953125 13.210938 23.953125 C 13.207031 23.953125 13.207031 23.953125 13.207031 23.953125 C 13.1875 23.953125 13.171875 23.957031 13.15625 23.957031 C 13.144531 23.957031 13.136719 23.957031 13.128906 23.960938 C 13.113281 23.960938 13.097656 23.960938 13.085938 23.960938 C 13.074219 23.960938 13.0625 23.964844 13.050781 23.964844 C 13.039062 23.964844 13.027344 23.96875 13.019531 23.96875 C 12.992188 23.96875 12.96875 23.96875 12.945312 23.972656 C 12.902344 23.976562 12.859375 23.976562 12.820312 23.980469 C 12.816406 23.980469 12.816406 23.980469 12.816406 23.980469 C 12.796875 23.980469 12.78125 23.980469 12.765625 23.980469 C 12.761719 23.980469 12.761719 23.980469 12.753906 23.980469 C 12.753906 23.980469 12.75 23.980469 12.746094 23.980469 C 12.710938 23.984375 12.675781 23.988281 12.644531 23.988281 C 12.644531 23.988281 12.644531 23.988281 12.640625 23.988281 C 12.625 23.988281 12.609375 23.988281 12.59375 23.988281 C 12.589844 23.988281 12.585938 23.988281 12.582031 23.988281 C 12.566406 23.988281 12.554688 23.992188 12.539062 23.992188 C 12.539062 23.992188 12.53125 23.992188 12.53125 23.992188 C 12.523438 23.992188 12.515625 23.992188 12.503906 23.996094 C 12.496094 23.996094 12.488281 23.996094 12.480469 23.996094 C 12.402344 24.003906 12.328125 24.003906 12.257812 24.011719 C 12.253906 24.011719 12.25 24.011719 12.246094 24.011719 C 12.242188 24.011719 12.242188 24.011719 12.238281 24.011719 C 12.171875 24.011719 12.105469 24.015625 12.035156 24.019531 C 11.925781 24.023438 11.816406 24.03125 11.707031 24.039062 C 11.644531 24.039062 11.582031 24.042969 11.519531 24.046875 C 11.402344 24.050781 11.285156 24.054688 11.167969 24.0625 C 11.09375 24.066406 11.023438 24.066406 10.949219 24.074219 C 10.84375 24.078125 10.738281 24.082031 10.628906 24.085938 C 10.550781 24.085938 10.476562 24.089844 10.398438 24.09375 C 10.296875 24.101562 10.195312 24.101562 10.089844 24.109375 C 10.011719 24.109375 9.929688 24.113281 9.855469 24.113281 C 9.75 24.117188 9.652344 24.121094 9.546875 24.125 C 9.46875 24.128906 9.390625 24.128906 9.308594 24.132812 C 9.210938 24.136719 9.109375 24.136719 9.007812 24.140625 C 8.925781 24.140625 8.851562 24.144531 8.769531 24.148438 C 8.667969 24.148438 8.570312 24.152344 8.464844 24.15625 C 8.386719 24.15625 8.308594 24.15625 8.230469 24.160156 C 8.1875 24.160156 8.144531 24.164062 8.105469 24.164062 L 8.597656 22.804688 C 9.742188 22.5625 10.910156 22.367188 12.074219 22.226562 C 12.148438 22.214844 12.222656 22.207031 12.296875 22.199219 C 12.371094 22.191406 12.445312 22.179688 12.519531 22.171875 C 12.753906 22.148438 12.984375 22.121094 13.214844 22.101562 C 13.289062 22.09375 13.363281 22.085938 13.4375 22.078125 C 13.507812 22.070312 13.585938 22.066406 13.65625 22.058594 C 15.042969 21.945312 16.441406 21.898438 17.828125 21.917969 C 17.921875 22.175781 18.019531 22.484375 18.121094 22.78125 C 18.21875 23.039062 18.304688 23.300781 18.386719 23.53125 Z M 13.21875 21.65625 C 13.207031 21.65625 13.199219 21.660156 13.1875 21.660156 C 12.972656 21.679688 12.761719 21.703125 12.546875 21.722656 L 12.546875 21.617188 C 12.777344 20.300781 12.96875 18.976562 13.113281 17.644531 Z M 14.804688 13.136719 C 14.816406 16.183594 14.390625 19.03125 13.644531 20.976562 L 13.445312 13.285156 C 13.558594 10.472656 13.484375 7.636719 13.222656 4.824219 L 13.179688 3.085938 C 14.21875 6.152344 14.789062 9.667969 14.804688 13.136719 Z M 6.761719 22.582031 C 7.773438 22.316406 8.804688 22.160156 9.839844 22.113281 C 9.359375 22.199219 8.878906 22.296875 8.398438 22.394531 C 8.324219 22.410156 8.265625 22.464844 8.238281 22.535156 L 7.636719 24.171875 C 6.097656 24.195312 4.539062 24.191406 2.988281 24.160156 C 4.171875 23.460938 5.433594 22.929688 6.761719 22.582031 Z M 20.585938 20.132812 C 20.335938 20.121094 20.089844 20.113281 19.84375 20.113281 C 17.398438 20.113281 15.378906 20.746094 13.960938 21.386719 C 14.324219 20.503906 14.628906 19.40625 14.847656 18.179688 C 15.117188 16.648438 15.257812 14.90625 15.25 13.132812 C 15.242188 11.222656 15.070312 9.300781 14.738281 7.421875 C 14.414062 5.59375 13.945312 3.847656 13.347656 2.230469 C 20.136719 6.050781 25.191406 13.492188 26.691406 21.871094 C 25.296875 21.109375 23.203125 20.273438 20.585938 20.132812 Z M 18.839844 23.484375 C 18.75 23.234375 18.652344 22.933594 18.554688 22.644531 C 18.4375 22.28125 18.316406 21.910156 18.210938 21.625 C 18.179688 21.539062 18.097656 21.480469 18.007812 21.480469 C 16.921875 21.457031 15.828125 21.476562 14.742188 21.539062 C 16.214844 20.953125 18.207031 20.453125 20.5625 20.574219 C 23.253906 20.714844 25.371094 21.617188 26.71875 22.390625 C 24.105469 22.839844 21.464844 23.207031 18.839844 23.484375 Z M 18.839844 23.484375 " fill-opacity="1" fill-rule="nonzero"/></g></svg>